<svg version="1.1" xmlns="http://www.w3.org/2000/svg" viewBox="0 0 1188 667" width="1188" height="667">
  <!-- svg-source:excalidraw -->
  
  <defs>
    <style>
      @font-face {
        font-family: "Virgil";
        src: url("https://excalidraw.com/Virgil.woff2");
      }
      @font-face {
        font-family: "Cascadia";
        src: url("https://excalidraw.com/Cascadia.woff2");
      }
    </style>
  </defs>
  <rect x="0" y="0" width="1188" height="667" fill="#ffffff"></rect><g stroke-linecap="round" transform="translate(209 46) rotate(0 484.5 305.5)"><path d="M-0.3 -0.52 C359.96 -2.42, 721.55 -2.55, 969.43 0.54 M0.38 0.08 C302.04 -1.93, 604.53 -1.91, 969.33 0.15 M968.24 -0.76 C969.58 231.71, 968.75 462.63, 968.28 610.42 M969.14 0.32 C966.53 202.52, 966.84 405.44, 969.11 610.83 M969.15 611.43 C644.61 615.26, 319.43 614.15, 0.47 611.42 M969.22 610.72 C663.96 607.4, 358.77 607.74, 0.31 611.04 M0.02 611.59 C0.53 476.21, -0.7 340.21, 0.55 -0.13 M-0.33 610.71 C-1.44 411.51, -1.3 212.39, 0.06 0.26" stroke="#000000" stroke-width="1" fill="none"></path></g><g stroke-linecap="round"><g transform="translate(50.99999999999997 45) rotate(0 33.334465488824065 -0.4865542309995732)"><path d="M-0.99 -0.14 C10.02 -0.49, 53.99 -1.09, 65.31 -1.16 M0.69 -1.26 C12.15 -1.51, 56.66 0.53, 67.66 0.29" stroke="#000000" stroke-width="1" fill="none"></path></g></g><g stroke-linecap="round"><g transform="translate(119 47) rotate(0 0.8593643286590975 136.93781986425162)"><path d="M-0.25 -0.04 C0.08 45.73, 1.92 229.08, 1.97 274.98 M1.82 -1.11 C2.08 44.29, 1.47 227.46, 1.59 273.25" stroke="#000000" stroke-width="1" fill="none"></path></g></g><g transform="translate(10 11.5) rotate(0 51.5 13)"><text x="0" y="18" font-family="Virgil, Segoe UI Emoji" font-size="20px" fill="#000000" text-anchor="start" style="white-space: pre;" direction="ltr">Event loop</text></g><g transform="translate(235 10) rotate(0 51.5 13)"><text x="0" y="18" font-family="Virgil, Segoe UI Emoji" font-size="20px" fill="#000000" text-anchor="start" style="white-space: pre;" direction="ltr">Event loop</text></g><g stroke-linecap="round" transform="translate(10 390) rotate(0 49.5 24.5)"><path d="M62.84 0.06 C71.76 0.87, 81.93 4.63, 87.84 8.4 C93.74 12.16, 97.6 17.68, 98.26 22.64 C98.92 27.61, 97.15 34.12, 91.79 38.21 C86.43 42.29, 75.21 45.53, 66.1 47.14 C56.99 48.76, 46.32 49.04, 37.11 47.89 C27.91 46.75, 16.98 44.07, 10.88 40.25 C4.77 36.44, 1.01 30, 0.49 25 C-0.04 20, 2.32 14.26, 7.74 10.23 C13.16 6.2, 22.65 2.03, 33.03 0.81 C43.41 -0.42, 62.99 2.46, 70.04 2.86 C77.08 3.25, 75.72 2.86, 75.3 3.19 M68.57 3.16 C76.89 4.6, 85.55 8.65, 90.69 12.59 C95.84 16.52, 100.02 21.86, 99.43 26.77 C98.85 31.67, 93.64 38.25, 87.17 42.03 C80.7 45.81, 70.25 48.45, 60.6 49.47 C50.95 50.48, 38.2 50.32, 29.27 48.12 C20.34 45.93, 11.77 40.58, 7.03 36.3 C2.29 32.03, -0.12 27.21, 0.83 22.48 C1.78 17.76, 6.49 11.41, 12.73 7.98 C18.98 4.54, 28.77 2.71, 38.29 1.89 C47.82 1.06, 64.85 3.19, 69.89 3.04 C74.93 2.88, 68.88 0.91, 68.53 0.97" stroke="#000000" stroke-width="1" fill="none"></path></g><g transform="translate(32 402.5) rotate(0 32.5 13)"><text x="32.5" y="18" font-family="Virgil, Segoe UI Emoji" font-size="20px" fill="#000000" text-anchor="middle" style="white-space: pre;" direction="ltr">Clients</text></g><g stroke-linecap="round" transform="translate(279 126) rotate(0 71.5 26)"><path d="M-1.47 -1.13 C52.22 -0.74, 104.37 2.15, 142.9 -2 M0.76 0.63 C44.56 -0.4, 88.89 -0.81, 143.44 -0.07 M144.36 -0.23 C145.06 18.56, 142.84 36.77, 143.8 51.84 M143.52 0.69 C142.45 14.42, 143 30.22, 143.12 52.57 M144.6 51.45 C111.67 50.52, 79.66 51.71, 1.7 53.68 M144 52.62 C93.56 52.05, 45.41 51.52, -0.67 51.87 M1.28 53.32 C0.99 33.86, -0.3 12.45, 0.39 -0.24 M-0.97 51.02 C0.82 41.1, 0 31.24, 0.61 -0.11" stroke="#000000" stroke-width="1" fill="none"></path></g><g stroke-linecap="round" transform="translate(208 178) rotate(0 12.5 29.5)"><path d="M-1.34 1.95 C7.11 1.13, 12.3 1.24, 24.35 -0.41 M-0.15 0.38 C7.01 -0.74, 16.71 -0.14, 24.92 0.27 M24.34 -0.42 C25.93 21.58, 25.74 44.3, 25 57.18 M24.06 -0.04 C25.31 17.58, 25.25 34.97, 25.26 59.76 M23.25 58.61 C17.27 58.26, 7.24 60.56, -0.16 59.05 M25.5 59.19 C15.06 59.01, 4.54 60.1, -0.55 58.86 M0.77 59.1 C2.09 36.7, -0.2 12.89, 0.02 0.03 M0.31 58.34 C0.34 39.13, 0.85 18.04, -0.67 -0.65" stroke="#000000" stroke-width="1" fill="none"></path></g><g stroke-linecap="round" transform="translate(207.0722891566271 266.28915662650616) rotate(0 12.885542168674704 52.78915662650604)"><path d="M-0.55 -0.43 C7.89 -0.04, 16.59 -1.54, 27.33 0.61 M0.42 -0.44 C5.37 -0.75, 12.92 0.39, 25.16 -0.55 M25.26 1.31 C24.47 23.83, 26.73 46.29, 25.13 103.88 M26.38 -0.29 C25.8 27.72, 25.03 54.09, 26.55 105.99 M27.66 107.15 C19.35 105.74, 8.45 106.84, 0.04 106.46 M26.73 106.02 C18.24 105.1, 10.45 105.18, -0.48 105.89 M-0.8 107.4 C-2.01 77.55, -0.48 52.43, -0.5 1.03 M0.63 104.78 C0.34 65.86, 0.78 27.51, -0.33 -0.09" stroke="#000000" stroke-width="1" fill="none"></path></g><g stroke-linecap="round" transform="translate(81 175) rotate(0 19.5 51)"><path d="M1.7 0.31 C8.37 1.11, 18.91 0.58, 38.79 -0.51 M-0.07 -0.49 C11.46 -0.58, 23.24 0.14, 38.47 0.11 M37.1 -1.98 C38.22 39.52, 38.09 82.19, 40.36 101.85 M39.26 -0.85 C40.34 28.4, 39.32 57.38, 39.29 101.63 M38.89 103.39 C24.65 100.49, 12.36 103.29, 1.59 100.3 M39.88 102.7 C30.16 101.38, 19.29 102.79, 0.18 101.93 M-1.44 101.23 C0.09 78.83, -0.95 58.86, 0.5 -0.3 M0.67 102.24 C-0.88 76.19, 0.36 49.92, -0.63 0.95" stroke="#000000" stroke-width="1" fill="none"></path></g><g stroke-linecap="round" transform="translate(287 227) rotate(0 62.5 76)"><path d="M-1.78 -1.52 C49.49 -0.43, 96.74 -2.56, 125.3 -1.22 M-0.78 -0.4 C28.57 0.1, 56.91 -0.56, 124.94 -0.37 M126.29 0.6 C127.01 54.58, 127.27 112.8, 126.75 150.15 M125.57 0.49 C126.25 36.93, 126.3 75.26, 124.81 151.63 M126.44 150.5 C90.48 153.06, 55.88 152.02, 0.64 151.56 M125.21 151.92 C81.25 151.63, 37.52 151.08, -0.14 151.95 M0.68 153.92 C0.37 113.77, 0.33 78.96, -0.14 -1.55 M0.17 151.6 C-0.27 98.32, 0.49 45.74, 0.27 0.35" stroke="#000000" stroke-width="1" fill="none"></path></g><g stroke-linecap="round" transform="translate(583 277) rotate(0 62.5 76)"><path d="M1.3 1.68 C36.81 0.19, 70.21 -1.38, 123.11 1.73 M-0.38 -0.22 C40.73 -1.46, 80.44 -0.73, 124.48 0.39 M124.88 1.47 C124.78 55.11, 124.4 112.7, 126.93 152.39 M124.06 0.52 C124.5 53.57, 122.87 109.17, 125.33 151.84 M123.95 153.33 C97.76 153.98, 71.86 154.82, -1.71 153.23 M124.85 151.31 C77.02 152.15, 30.28 152.7, 0.96 151.6 M1.09 152.47 C-0.44 110.91, 0.45 68.4, -0.8 0.45 M0.31 152.07 C0.46 106.64, 0.83 61.75, -0.08 0.64" stroke="#000000" stroke-width="1" fill="none"></path></g><g stroke-linecap="round" transform="translate(888 305) rotate(0 62.5 76)"><path d="M1.21 -0.35 C26.89 0.16, 53.36 -1.23, 123.69 -1.36 M-0.73 -0.84 C38.66 -0.05, 77.68 -0.28, 125.85 0.31 M125.21 -0.84 C125.52 44.67, 125.73 90.72, 126.93 150.91 M125.09 -0.63 C125.22 43.21, 123.75 87.23, 125.98 151.92 M126.86 153.79 C80.81 153.6, 37.75 154.01, 1.49 151.16 M124.8 151.59 C85.62 150.58, 43.49 150.37, -0.45 152.73 M-0.72 151.06 C0.9 119.58, -0.56 91.13, 0.11 -0.2 M0.71 151.82 C-1.1 115.96, -0.38 79.78, 0.64 -0.83" stroke="#000000" stroke-width="1" fill="none"></path></g><g stroke-linecap="round" transform="translate(892 67) rotate(0 62.5 75.99999999999997)"><path d="M-0.9 1.33 C26.86 -0.58, 54.58 -1.27, 124.02 -1.22 M-0.44 0.48 C46.49 0.11, 91.47 0.54, 124.41 -0.11 M125.72 -0.04 C124.37 42.07, 125.66 84.28, 123.73 151.66 M124.81 0.77 C126.96 54.42, 127.01 108.51, 124.49 152.42 M126.24 150.02 C87.88 151.78, 48.34 149.99, 1.38 151.83 M125.13 151.05 C90.9 150.78, 56.2 150.37, -0.27 152.69 M-0.14 153.86 C-3.01 98.02, -2.4 45.42, 1.08 1.15 M-0.81 151.04 C0.58 99.94, -0.87 48.02, 0.22 0.23" stroke="#000000" stroke-width="1" fill="none"></path></g><g stroke-linecap="round" transform="translate(472 78) rotate(0 62.5 75.99999999999997)"><path d="M0.02 -1.85 C26.56 -1.74, 50.96 0.01, 125.73 -0.53 M-0.15 -0.33 C47.7 -0.06, 95.45 -0.64, 125.53 0.51 M124.49 0.83 C126.38 57.5, 126.91 112.2, 123.25 152.01 M124.71 0.16 C123.57 45.81, 123.72 92.02, 125.96 152.2 M123.87 153.12 C90.77 153, 56.77 154.42, 0.95 153.35 M125.6 152.22 C81.87 152.99, 38.53 153.67, -0.53 151.44 M1.44 151.35 C1.4 98.42, 2.11 46.15, 1.69 -1.33 M0.96 152.23 C-0.03 103.06, -0.06 56.25, -0.35 -0.23" stroke="#000000" stroke-width="1" fill="none"></path></g><g stroke-linecap="round" transform="translate(300 248) rotate(0 53.5 55.5)"><path d="M74.56 3.14 C82.91 5.58, 91.59 14.15, 96.92 21.67 C102.26 29.19, 105.57 38.83, 106.57 48.26 C107.56 57.69, 106.73 69.48, 102.91 78.24 C99.08 87, 91.15 95.37, 83.62 100.82 C76.1 106.27, 66.73 109.99, 57.75 110.93 C48.76 111.87, 37.88 110.5, 29.73 106.46 C21.58 102.42, 13.72 94.53, 8.83 86.68 C3.95 78.83, 0.94 68.67, 0.44 59.36 C-0.06 50.05, 1.75 39.15, 5.82 30.84 C9.9 22.52, 17.18 14.45, 24.89 9.48 C32.6 4.51, 42.92 1.47, 52.09 1.01 C61.27 0.56, 74.43 4.99, 79.92 6.76 C85.41 8.54, 85.34 10.77, 85.05 11.67 M50.05 0.36 C58.44 -1.06, 67.6 1.27, 75.66 5.25 C83.72 9.23, 93.15 16.37, 98.42 24.23 C103.7 32.1, 107.08 43.07, 107.29 52.44 C107.51 61.81, 103.98 72.26, 99.71 80.47 C95.44 88.67, 89.19 96.66, 81.67 101.67 C74.16 106.68, 63.51 110.23, 54.63 110.54 C45.74 110.85, 36.42 107.81, 28.35 103.53 C20.28 99.26, 10.87 92.76, 6.2 84.87 C1.54 76.98, -0.03 65.98, 0.38 56.2 C0.78 46.41, 4.01 34.29, 8.64 26.14 C13.26 18, 21.41 11.43, 28.11 7.32 C34.82 3.21, 45.68 2.56, 48.87 1.5 C52.06 0.43, 47.03 0.07, 47.26 0.95" stroke="#000000" stroke-width="1" fill="none"></path></g><g stroke-linecap="round" transform="translate(596 298) rotate(0 53.5 55.5)"><path d="M64.99 0.54 C73.7 1.98, 84.89 8.91, 91.43 15.71 C97.96 22.5, 101.99 32.33, 104.22 41.32 C106.44 50.31, 106.95 60.75, 104.8 69.63 C102.64 78.5, 97.77 87.91, 91.3 94.57 C84.84 101.22, 74.94 107.15, 66 109.56 C57.05 111.97, 46.13 111.78, 37.62 109.05 C29.11 106.31, 20.87 100.13, 14.92 93.15 C8.97 86.16, 3.82 76.36, 1.91 67.15 C0 57.94, 0.83 46.87, 3.47 37.9 C6.11 28.94, 11.04 19.37, 17.76 13.36 C24.48 7.36, 33.89 3.09, 43.79 1.89 C53.69 0.69, 70.21 4.26, 77.15 6.18 C84.09 8.1, 85.99 12.57, 85.41 13.39 M76.74 5.38 C85.02 8.3, 91.95 14.39, 96.98 22.24 C102.01 30.08, 106.28 42.68, 106.92 52.44 C107.56 62.19, 104.84 72.45, 100.83 80.77 C96.81 89.09, 90.15 97.14, 82.81 102.37 C75.47 107.6, 66.03 111.61, 56.79 112.15 C47.56 112.69, 35.33 110.17, 27.41 105.59 C19.48 101.01, 13.8 92.86, 9.25 84.67 C4.71 76.48, 0.71 65.94, 0.14 56.47 C-0.43 47, 1.4 35.87, 5.83 27.86 C10.26 19.85, 18.57 12.81, 26.73 8.41 C34.9 4.01, 46.8 2.11, 54.82 1.45 C62.84 0.79, 71.59 3.74, 74.85 4.47 C78.11 5.2, 74.53 4.85, 74.4 5.82" stroke="#000000" stroke-width="1" fill="none"></path></g><g stroke-linecap="round" transform="translate(901 326) rotate(0 53.5 55.5)"><path d="M61.45 0.09 C69.97 0.71, 80.15 6.94, 87.18 13.06 C94.22 19.18, 100.63 28.11, 103.64 36.82 C106.65 45.53, 106.97 56.13, 105.27 65.34 C103.56 74.56, 99.28 85.03, 93.42 92.12 C87.56 99.2, 78.58 104.88, 70.09 107.85 C61.6 110.82, 51.38 112.05, 42.5 109.93 C33.62 107.8, 23.63 101.59, 16.81 95.09 C9.99 88.6, 4.16 79.75, 1.57 70.97 C-1.02 62.19, -0.94 51.41, 1.28 42.44 C3.5 33.47, 8.56 23.77, 14.88 17.15 C21.21 10.53, 30.48 5.22, 39.26 2.7 C48.04 0.18, 61.91 1.49, 67.57 2.01 C73.23 2.53, 73.35 5.01, 73.21 5.82 M65.55 3.28 C74.29 5.13, 84.79 10.67, 91.37 17.17 C97.94 23.67, 102.52 33.06, 105 42.27 C107.47 51.49, 108.77 63.36, 106.23 72.48 C103.7 81.6, 96.58 90.58, 89.79 96.99 C82.99 103.4, 74.06 109.17, 65.44 110.94 C56.81 112.71, 46.65 110.96, 38.03 107.63 C29.41 104.3, 20.06 97.96, 13.7 90.96 C7.34 83.95, 1.72 74.4, -0.14 65.61 C-2 56.82, -0.58 47.22, 2.54 38.22 C5.66 29.23, 11.67 18, 18.58 11.64 C25.48 5.27, 35.69 1.91, 43.95 0.03 C52.21 -1.85, 64.2 -0.23, 68.14 0.34 C72.07 0.91, 68.05 2.42, 67.55 3.44" stroke="#000000" stroke-width="1" fill="none"></path></g><g stroke-linecap="round" transform="translate(905 88) rotate(0 53.5 55.5)"><path d="M47.22 -0.11 C55.54 -1.83, 66.34 1.49, 74.55 5.4 C82.77 9.3, 91.2 15.67, 96.5 23.3 C101.8 30.92, 105.32 41.77, 106.35 51.16 C107.39 60.56, 106.49 71.15, 102.71 79.66 C98.94 88.17, 91.49 97.02, 83.7 102.21 C75.91 107.4, 65.13 110.3, 55.98 110.8 C46.82 111.3, 36.9 109.45, 28.79 105.22 C20.68 100.99, 12.12 93.52, 7.32 85.39 C2.52 77.26, 0.16 65.87, 0 56.41 C-0.16 46.95, 2.05 36.87, 6.34 28.63 C10.63 20.4, 17.79 11.7, 25.74 7.02 C33.69 2.34, 48.06 1.38, 54.04 0.55 C60.03 -0.29, 61.67 1.05, 61.66 2.02 M79.08 5.35 C87.07 8.48, 94.74 17.9, 99.36 25.95 C103.99 34, 106.49 44.5, 106.82 53.64 C107.14 62.78, 105.49 72.53, 101.29 80.79 C97.1 89.05, 89.6 98.43, 81.65 103.23 C73.69 108.03, 62.6 109.62, 53.55 109.61 C44.5 109.6, 35.23 107.52, 27.34 103.17 C19.46 98.82, 11.03 91.68, 6.25 83.49 C1.46 75.31, -1.47 63.68, -1.37 54.08 C-1.27 44.47, 1.77 34, 6.83 25.85 C11.88 17.69, 20.78 9.5, 28.96 5.14 C37.15 0.78, 47.62 -0.61, 55.95 -0.32 C64.28 -0.03, 75.13 5.54, 78.94 6.88 C82.75 8.23, 79.39 6.81, 78.8 7.73" stroke="#000000" stroke-width="1" fill="none"></path></g><g stroke-linecap="round" transform="translate(485 100) rotate(0 53.5 55.5)"><path d="M59.61 0.71 C68.33 1.15, 78.11 6.28, 85.38 11.99 C92.65 17.7, 99.73 26.48, 103.22 34.97 C106.71 43.47, 107.71 53.63, 106.32 62.96 C104.93 72.29, 100.65 83.54, 94.88 90.98 C89.11 98.43, 80.05 104.35, 71.72 107.64 C63.4 110.92, 53.64 112.3, 44.95 110.7 C36.26 109.1, 26.6 104.27, 19.58 98.05 C12.55 91.83, 5.82 82.25, 2.8 73.4 C-0.22 64.56, -0.44 54.02, 1.48 44.97 C3.41 35.92, 8.38 26.33, 14.35 19.11 C20.31 11.89, 29.46 4.75, 37.27 1.66 C45.07 -1.42, 57.02 0.65, 61.17 0.6 C65.31 0.54, 62.31 0.41, 62.14 1.35 M38.41 3.73 C46.54 0.46, 57.81 -0.97, 66.8 1.22 C75.79 3.42, 86.09 10.07, 92.35 16.89 C98.61 23.71, 102.32 33.18, 104.38 42.16 C106.43 51.14, 107.08 61.65, 104.69 70.77 C102.3 79.89, 96.41 90.27, 90.02 96.9 C83.63 103.53, 75 108.76, 66.35 110.56 C57.69 112.37, 46.73 110.57, 38.11 107.73 C29.5 104.89, 20.78 100.42, 14.66 93.52 C8.54 86.61, 3.29 75.78, 1.39 66.3 C-0.51 56.82, 0.14 45.62, 3.28 36.63 C6.43 27.64, 14.56 17.96, 20.25 12.37 C25.95 6.77, 34.53 4.54, 37.46 3.06 C40.4 1.59, 37.28 2.86, 37.85 3.54" stroke="#000000" stroke-width="1" fill="none"></path></g><g stroke-linecap="round" transform="translate(334 286) rotate(0 20.5 21.5)"><path d="M23.1 0.97 C27.18 1.32, 32.51 4.54, 35.51 7.98 C38.5 11.42, 40.87 17.25, 41.06 21.61 C41.24 25.96, 39.36 30.7, 36.64 34.1 C33.91 37.49, 28.85 40.88, 24.71 41.97 C20.57 43.06, 15.69 42.69, 11.8 40.63 C7.91 38.58, 3.3 33.78, 1.36 29.66 C-0.58 25.54, -1.22 20.41, 0.15 15.94 C1.53 11.47, 5.27 5.29, 9.61 2.85 C13.95 0.4, 22.98 1.31, 26.19 1.28 C29.4 1.25, 28.92 2.55, 28.87 2.66 M18.13 -0.35 C22.44 -0.99, 29.34 0.37, 32.82 3.25 C36.3 6.14, 37.9 12.32, 39.01 16.97 C40.11 21.62, 40.89 27.36, 39.46 31.15 C38.03 34.95, 34.38 37.83, 30.43 39.74 C26.48 41.66, 20.16 43.41, 15.75 42.63 C11.34 41.86, 6.81 39, 3.95 35.1 C1.1 31.2, -1.92 23.88, -1.38 19.25 C-0.85 14.62, 3.85 10.57, 7.14 7.31 C10.43 4.06, 16.27 0.61, 18.33 -0.29 C20.4 -1.19, 19.61 1.63, 19.52 1.9" stroke="#000000" stroke-width="1" fill="none"></path></g><g stroke-linecap="round" transform="translate(630 336) rotate(0 20.5 21.5)"><path d="M19.31 0.86 C23.65 0.54, 30.05 1.34, 33.72 4.05 C37.4 6.76, 40.64 12.42, 41.37 17.14 C42.11 21.86, 40.52 28.35, 38.15 32.37 C35.79 36.39, 31.22 39.79, 27.18 41.28 C23.14 42.76, 17.88 42.62, 13.89 41.27 C9.91 39.92, 5.53 36.93, 3.25 33.17 C0.98 29.41, -0.39 23.26, 0.24 18.72 C0.88 14.18, 2.9 9.05, 7.08 5.93 C11.26 2.81, 21.53 0.51, 25.3 0.01 C29.08 -0.48, 29.65 2.49, 29.74 2.97 M24.79 1.62 C29.31 2.35, 36.3 4.72, 38.79 8.63 C41.28 12.54, 40.31 20.39, 39.71 25.08 C39.11 29.77, 38.38 33.77, 35.2 36.76 C32.01 39.76, 24.84 42.83, 20.62 43.05 C16.39 43.27, 13.01 40.85, 9.84 38.08 C6.67 35.31, 2.79 30.68, 1.6 26.43 C0.4 22.18, 0.72 16.9, 2.69 12.58 C4.66 8.27, 9.35 2.31, 13.43 0.56 C17.5 -1.2, 25.02 1.93, 27.12 2.07 C29.21 2.21, 26.29 1.42, 26 1.39" stroke="#000000" stroke-width="1" fill="none"></path></g><g stroke-linecap="round" transform="translate(935 364) rotate(0 20.5 21.5)"><path d="M18.88 -0.66 C22.97 -1.06, 29.44 1.31, 33.02 4.09 C36.59 6.88, 39.51 11.5, 40.32 16.03 C41.13 20.57, 39.91 27.05, 37.88 31.31 C35.85 35.57, 32.13 39.67, 28.14 41.6 C24.14 43.52, 18 44.28, 13.9 42.87 C9.81 41.47, 5.97 37.27, 3.56 33.17 C1.14 29.06, -1.11 22.9, -0.59 18.25 C-0.07 13.61, 2.66 8.44, 6.7 5.28 C10.74 2.13, 20.3 0.15, 23.67 -0.69 C27.04 -1.52, 26.94 -0.14, 26.92 0.26 M19.63 -0.92 C23.96 -1.79, 30.42 0.33, 33.66 3.02 C36.9 5.72, 37.96 10.55, 39.05 15.25 C40.15 19.94, 41.85 26.93, 40.21 31.21 C38.56 35.49, 33.44 38.91, 29.21 40.95 C24.98 42.99, 18.94 44.78, 14.84 43.44 C10.74 42.09, 6.9 36.94, 4.62 32.9 C2.33 28.85, 0.58 23.5, 1.11 19.16 C1.65 14.82, 4.87 9.97, 7.83 6.84 C10.78 3.71, 17.12 1.62, 18.86 0.37 C20.6 -0.88, 18.21 -0.83, 18.29 -0.64" stroke="#000000" stroke-width="1" fill="none"></path></g><g stroke-linecap="round" transform="translate(939 126) rotate(0 20.5 21.5)"><path d="M23.04 -0.37 C27.32 -0.08, 33.49 3.25, 36.5 6.73 C39.5 10.2, 40.97 15.64, 41.06 20.49 C41.14 25.35, 39.74 32.1, 37.03 35.84 C34.31 39.59, 29.06 42.31, 24.78 42.97 C20.5 43.63, 15.25 42.1, 11.33 39.81 C7.42 37.51, 2.96 33.53, 1.31 29.19 C-0.33 24.86, -0.02 18.14, 1.46 13.8 C2.93 9.45, 6.1 5.36, 10.15 3.15 C14.2 0.94, 22.62 0.78, 25.75 0.54 C28.89 0.3, 29.05 1.35, 28.95 1.72 M25.72 1.94 C29.88 2.9, 36.05 6.37, 38.83 10.18 C41.61 13.98, 43.18 20.21, 42.39 24.77 C41.6 29.32, 37.45 34.49, 34.08 37.49 C30.71 40.49, 26.47 42.37, 22.18 42.78 C17.9 43.18, 12.22 42.42, 8.39 39.92 C4.55 37.42, 0.23 32.39, -0.84 27.78 C-1.91 23.17, 0.05 16.39, 1.96 12.25 C3.87 8.11, 6.65 4.94, 10.63 2.96 C14.62 0.98, 23.13 0.9, 25.87 0.38 C28.61 -0.15, 27.11 -0.37, 27.08 -0.19" stroke="#000000" stroke-width="1" fill="none"></path></g><g stroke-linecap="round" transform="translate(519 138) rotate(0 20.5 21.5)"><path d="M13.86 1.03 C17.94 -0.71, 24.18 -0.01, 28.37 1.59 C32.55 3.18, 36.97 6.74, 38.97 10.61 C40.97 14.48, 41.1 20.4, 40.36 24.83 C39.61 29.26, 37.77 34.09, 34.5 37.2 C31.23 40.32, 25.19 43.29, 20.75 43.53 C16.3 43.78, 11.19 41.75, 7.83 38.67 C4.46 35.6, 1.44 29.67, 0.55 25.08 C-0.33 20.5, -0.08 15.14, 2.5 11.16 C5.08 7.18, 13.37 3.02, 16.03 1.22 C18.69 -0.57, 18.59 0.15, 18.44 0.4 M20.32 0.25 C24.49 0.14, 29.71 1.98, 33 4.96 C36.3 7.94, 38.98 13.5, 40.08 18.13 C41.17 22.77, 41.78 28.63, 39.57 32.78 C37.36 36.94, 31.07 41.73, 26.84 43.06 C22.6 44.39, 18.04 42.66, 14.14 40.77 C10.25 38.88, 5.73 35.67, 3.47 31.72 C1.2 27.78, -0.33 21.44, 0.55 17.08 C1.44 12.73, 5.24 8.31, 8.77 5.58 C12.31 2.84, 19.88 1.37, 21.76 0.66 C23.64 -0.04, 20.05 1.06, 20.03 1.36" stroke="#000000" stroke-width="1" fill="none"></path></g><g stroke-linecap="round"><g transform="translate(338 254) rotate(0 6.296918131909365 16.675145395421424)"><path d="M0.99 -0.1 C3.21 5.64, 10.78 28.84, 12.55 34.55 M0.05 -1.2 C2.23 4.18, 10.12 26.59, 11.88 32.72" stroke="#000000" stroke-width="1" fill="none"></path></g></g><g stroke-linecap="round"><g transform="translate(634 304) rotate(0 6.337662307424466 16.487241686629147)"><path d="M0.56 -0.03 C2.27 5.31, 9.35 27.19, 11.06 33.03 M-0.61 -1.09 C1.41 4.89, 10.99 28.34, 13.29 34.06" stroke="#000000" stroke-width="1" fill="none"></path></g></g><g stroke-linecap="round"><g transform="translate(939 332) rotate(0 5.833984737577794 16.437531155729687)"><path d="M0.39 -0.11 C2.36 5.43, 10.72 27.5, 12.53 33.05 M-0.86 -1.22 C0.93 4.46, 9.43 28.21, 11.86 34.09" stroke="#000000" stroke-width="1" fill="none"></path></g></g><g stroke-linecap="round"><g transform="translate(943 94) rotate(0 5.840876463800669 17.471281439112488)"><path d="M-0.28 0.36 C1.8 5.88, 10.01 28.45, 11.96 33.94 M1.77 -0.5 C3.74 5.15, 9.57 29.66, 10.99 35.44" stroke="#000000" stroke-width="1" fill="none"></path></g></g><g stroke-linecap="round"><g transform="translate(523 106) rotate(0 6.248501540226869 16.686516483873135)"><path d="M0.27 -0.84 C2.14 5.05, 9.21 28.46, 11.24 34.21 M-1.05 1.34 C1.2 6.93, 11.39 26.62, 13.55 32.2" stroke="#000000" stroke-width="1" fill="none"></path></g></g><g stroke-linecap="round"><g transform="translate(385 258) rotate(0 -8.248683412619869 16.32000904445539)"><path d="M1.04 0.65 C-1.67 5.89, -13.75 25.86, -16.39 31.11 M0.13 -0.06 C-2.76 5.42, -15.03 27.63, -17.54 32.7" stroke="#000000" stroke-width="1" fill="none"></path></g></g><g stroke-linecap="round"><g transform="translate(681 308) rotate(0 -8.497487846761942 14.934514161837313)"><path d="M-0.03 -0.94 C-3.02 3.95, -14.48 24.49, -16.97 29.86 M-1.5 1.19 C-4.22 6.13, -12.48 25.55, -14.76 30.8" stroke="#000000" stroke-width="1" fill="none"></path></g></g><g stroke-linecap="round"><g transform="translate(986 336) rotate(0 -8.53008491620426 15.54920076017271)"><path d="M-0.11 0.53 C-2.9 5.5, -14.16 25.12, -16.95 30.22 M-1.63 -0.24 C-4.03 4.83, -12.61 25.88, -14.73 31.34" stroke="#000000" stroke-width="1" fill="none"></path></g></g><g stroke-linecap="round"><g transform="translate(990 98) rotate(0 -8.342151353922645 15.269129932904633)"><path d="M0.36 -0.04 C-2.45 5.08, -13.21 25.11, -16.06 30.41 M-0.92 -1.1 C-3.96 4.19, -14.82 26.49, -17.04 31.64" stroke="#000000" stroke-width="1" fill="none"></path></g></g><g stroke-linecap="round"><g transform="translate(570 110) rotate(0 -7.851654458576775 15.337193039804703)"><path d="M-0.84 -0.76 C-3.28 4.43, -13.21 25.97, -15.79 31.44 M0.92 1.45 C-1.56 6.26, -13.6 24.75, -16.63 29.54" stroke="#000000" stroke-width="1" fill="none"></path></g></g><g stroke-linecap="round"><g transform="translate(375 313) rotate(0 12.810530785503772 4.369735137606057)"><path d="M0.71 0.35 C5.17 1.84, 22.04 6.51, 26 7.81 M-0.37 -0.5 C4.07 1.26, 21.6 7.57, 25.57 9.24" stroke="#000000" stroke-width="1" fill="none"></path></g></g><g stroke-linecap="round"><g transform="translate(671 363) rotate(0 12.521778804413032 4.034173115342867)"><path d="M-0.94 -0.97 C2.95 0.54, 19.49 7.7, 23.86 9.04 M0.77 1.14 C4.96 2.34, 22 6.34, 25.98 7.46" stroke="#000000" stroke-width="1" fill="none"></path></g></g><g stroke-linecap="round"><g transform="translate(976 391) rotate(0 12.929698010748325 3.6739278917434035)"><path d="M0.53 -0.95 C4.5 0.27, 20.12 5.75, 24.22 7.18 M-0.66 1.17 C3.66 2.53, 22.34 7.03, 26.52 8.29" stroke="#000000" stroke-width="1" fill="none"></path></g></g><g stroke-linecap="round"><g transform="translate(980 153) rotate(0 12.64962718348022 3.6437737721670374)"><path d="M-0.04 -0.06 C4.08 1.09, 20.11 6.03, 24.41 7.27 M-1.52 -1.14 C3.02 0.12, 22.33 6.84, 26.82 8.43" stroke="#000000" stroke-width="1" fill="none"></path></g></g><g stroke-linecap="round"><g transform="translate(560 165) rotate(0 12.337193039804731 4.16237788205035)"><path d="M-0.76 0.21 C3.43 1.63, 20.97 6.32, 25.44 7.68 M1.04 -0.73 C5.09 0.94, 20.59 7.9, 24.72 9.05" stroke="#000000" stroke-width="1" fill="none"></path></g></g><g stroke-linecap="round"><g transform="translate(356 330) rotate(0 4.708598495624017 15.157982267462614)"><path d="M1.16 0.84 C2.53 5.94, 7.92 25.51, 9.11 30.08 M0.31 0.24 C1.45 5.07, 6.47 23.69, 8.21 28.52" stroke="#000000" stroke-width="1" fill="none"></path></g></g><g stroke-linecap="round"><g transform="translate(652 380) rotate(0 4.534173115342867 14.070450714975607)"><path d="M-0.97 -1.14 C0.71 3.9, 8.54 24.11, 10.04 29.28 M0.73 0.88 C2.34 5.62, 8.02 22.78, 9.63 27.3" stroke="#000000" stroke-width="1" fill="none"></path></g></g><g stroke-linecap="round"><g transform="translate(957 408) rotate(0 4.761192534319093 14.96482411848848)"><path d="M-0.95 -0.78 C0.44 3.98, 6.59 24.19, 8.18 29.12 M0.76 1.42 C2.53 6.35, 9.31 25.95, 10.47 30.71" stroke="#000000" stroke-width="1" fill="none"></path></g></g><g stroke-linecap="round"><g transform="translate(961 170) rotate(0 4.524271022742596 14.592215184122324)"><path d="M-0.06 -0.59 C1.26 4.38, 6.87 24.83, 8.27 29.77 M-1.55 1.72 C0.12 6.35, 9.13 23.27, 10.6 28.05" stroke="#000000" stroke-width="1" fill="none"></path></g></g><g stroke-linecap="round"><g transform="translate(541 182) rotate(0 3.770799226644499 14.81946935419461)"><path d="M0.21 0.44 C1.8 5.57, 7.16 25.12, 8.68 30.02 M-1.14 -0.38 C0.33 4.5, 5.91 23.71, 7.56 28.43" stroke="#000000" stroke-width="1" fill="none"></path></g></g><g stroke-linecap="round"><g transform="translate(337 320) rotate(0 -10.12477258885744 11.147352882050939)"><path d="M1.15 0.05 C-2.35 3.74, -17.25 19.31, -20.99 23.26 M0.3 -0.96 C-3.27 2.84, -17.74 17.47, -21.4 21.27" stroke="#000000" stroke-width="1" fill="none"></path></g></g><g stroke-linecap="round"><g transform="translate(633 370) rotate(0 -11.028654756145556 11.786266098069063)"><path d="M-1.14 1.04 C-4.6 4.87, -18.39 18.43, -21.72 22.02 M0.47 0.53 C-3.05 4.57, -18.87 19.19, -22.52 23.04" stroke="#000000" stroke-width="1" fill="none"></path></g></g><g stroke-linecap="round"><g transform="translate(938 398) rotate(0 -10.883513086373 11.586585331154026)"><path d="M-0.78 -0.82 C-4.52 3.12, -18.31 18.82, -21.88 22.64 M1 1.37 C-2.93 5.56, -18.75 20.39, -22.77 23.99" stroke="#000000" stroke-width="1" fill="none"></path></g></g><g stroke-linecap="round"><g transform="translate(942 160) rotate(0 -10.232963940696777 11.421800878220239)"><path d="M-0.59 -0.73 C-4.12 3.01, -17.67 18.5, -21.23 22.37 M1.31 1.5 C-2.31 5.39, -17.78 19.91, -21.77 23.57" stroke="#000000" stroke-width="1" fill="none"></path></g></g><g stroke-linecap="round"><g transform="translate(522 172) rotate(0 -10.479060458191668 10.906417086147684)"><path d="M0.44 -0.32 C-2.93 3.54, -17.38 19.49, -20.98 23.35 M-0.79 -1.53 C-4.17 1.93, -17.95 17.14, -21.39 21.4" stroke="#000000" stroke-width="1" fill="none"></path></g></g><g stroke-linecap="round"><g transform="translate(335 298) rotate(0 -16.784139352408232 -4.540680098044675)"><path d="M-0.17 0.9 C-5.62 -0.36, -26.79 -6.47, -32.29 -8.25 M-1.72 0.32 C-7.39 -1.22, -28.53 -8.45, -33.4 -9.98" stroke="#000000" stroke-width="1" fill="none"></path></g></g><g stroke-linecap="round"><g transform="translate(631 348) rotate(0 -15.97353741303084 -4.756429647314349)"><path d="M1.04 0.28 C-4.3 -0.89, -27.4 -6.54, -32.98 -8.13 M0.12 -0.62 C-4.77 -2.02, -25.19 -8.55, -30.79 -9.79" stroke="#000000" stroke-width="1" fill="none"></path></g></g><g stroke-linecap="round"><g transform="translate(936 376) rotate(0 -16.269695059852666 -4.549931017309461)"><path d="M-0.82 0.12 C-6.05 -1.29, -27.02 -7.53, -32.36 -9.22 M0.96 -0.87 C-4.38 -2.02, -28.26 -6.4, -33.5 -7.79" stroke="#000000" stroke-width="1" fill="none"></path></g></g><g stroke-linecap="round"><g transform="translate(940 138) rotate(0 -15.771796876308485 -4.076702018827206)"><path d="M-0.73 0.77 C-6.16 -0.62, -27.33 -7.39, -32.63 -8.92 M1.09 0.13 C-3.94 -1, -24.47 -5.58, -30.25 -7.35" stroke="#000000" stroke-width="1" fill="none"></path></g></g><g stroke-linecap="round"><g transform="translate(520 150) rotate(0 -15.353583454424495 -4.4014715592144)"><path d="M-0.32 1.02 C-5.63 -0.41, -26.34 -6.41, -31.65 -8.15 M1.71 0.51 C-3.74 -1.29, -26.63 -8.36, -32.42 -9.82" stroke="#000000" stroke-width="1" fill="none"></path></g></g><g stroke-linecap="round" transform="translate(391 207) rotate(0 10.5 9.5)"><path d="M0.96 -0.45 C3.23 -0.23, 8.47 -1.95, 19.66 -1.27 M0.3 -0.47 C6.93 -0.14, 14.24 0.29, 21.25 -0.61 M20.03 0.49 C20.3 7.83, 19.88 14.21, 20.87 19.9 M20.92 0.46 C20.53 5.88, 21.74 12.61, 21.61 18.88 M22.68 19.93 C14.19 17.58, 5.86 17.24, 1.73 19.46 M20.78 19.34 C15.87 18.58, 12.02 18.4, 0.39 19.71 M1.4 18.83 C-1.29 12.82, -0.09 9.53, 0.37 1.07 M0.49 19.8 C-0.62 14.24, 0.75 11.27, -0.15 -0.8" stroke="#000000" stroke-width="1" fill="none"></path></g><g stroke-linecap="round" transform="translate(687 257) rotate(0 10.5 9.5)"><path d="M-1.64 1.46 C3.54 -0.49, 9.3 -1.16, 20.32 0.36 M-0.03 0.7 C5.15 0.59, 10.33 -0.76, 20.72 0.02 M19.32 0.62 C19.26 8.52, 22.64 13.94, 19.51 20.63 M21.06 0.9 C20.47 6.95, 20.83 13.01, 21.35 19.77 M20.9 19.17 C16.2 17.8, 11.38 19.26, 1.24 20.18 M20.59 18.95 C13.22 19.18, 3.81 19.06, -0.09 18.53 M-1.44 18.23 C0.55 14.2, -1.36 7.72, -0.6 -1.9 M0.58 18.6 C-0.14 13.42, -0.1 6.99, -0.22 -0.07" stroke="#000000" stroke-width="1" fill="none"></path></g><g stroke-linecap="round" transform="translate(992 285) rotate(0 10.5 9.5)"><path d="M-0.6 -0.36 C3.46 -1.7, 9.76 -0.58, 21.53 -1.01 M-0.76 -0.52 C8.18 -0.43, 16.98 -0.84, 21.94 -0.97 M20.63 1.2 C21.07 6.34, 21.87 13.36, 19.18 17.12 M20.77 0.25 C21.87 8.42, 20.83 15.73, 21.22 19.8 M19.36 17.55 C12.75 18.23, 7.26 18.02, -1.53 17.55 M21.52 19.37 C15.28 18.32, 11.12 17.97, 0.12 19.33 M0.45 19.42 C1.36 12.86, -1.39 6.85, -0.05 -1.37 M0.72 19.8 C-0.29 12.57, 0.7 4.72, -0.02 -0.34" stroke="#000000" stroke-width="1" fill="none"></path></g><g stroke-linecap="round" transform="translate(996 47) rotate(0 10.5 9.5)"><path d="M-1.05 0.13 C4.38 0.83, 12.46 0.25, 21.8 1.24 M0.4 -0.88 C5.43 0.02, 9.52 -0.32, 21.03 -0.65 M22.27 0.66 C20.6 5.95, 22.77 10.04, 22.88 20.49 M20.9 -0.12 C21.67 3.79, 21.66 9.43, 21.02 18.12 M22.58 17.14 C13.52 17.04, 5.46 18.82, -1.32 18.06 M21.92 19.42 C15.21 20.04, 8.74 18.83, -0.5 19.14 M-0.07 17.81 C-1.65 10.46, 0.89 6.16, -1.75 1.47 M0.33 18.73 C0.12 12.02, -0.33 6.74, -0.54 0.6" stroke="#000000" stroke-width="1" fill="none"></path></g><g stroke-linecap="round" transform="translate(576 59) rotate(0 10.5 9.5)"><path d="M0.58 1.42 C6.77 -0.84, 13.31 1.48, 19.46 0.51 M0.24 -0.14 C7.16 0.27, 15.34 0.43, 21.77 -0.24 M19.94 -1.15 C20.46 4.35, 19.91 7.77, 20.17 19.14 M21.8 0.56 C20.5 8.06, 20.85 15.18, 20.73 19.8 M20.04 20.24 C14.9 19.54, 6.17 19.52, -0.87 20.78 M20.5 19.12 C16.52 18.78, 10.93 19.05, 0.68 19.54 M-0.19 18.56 C1.95 12.13, -0.22 2.55, -0.4 0.34 M-0.46 19.01 C0.37 14.23, 0 9.72, 0.33 -0.72" stroke="#000000" stroke-width="1" fill="none"></path></g><g stroke-linecap="round"><g transform="translate(121 322.00000000000006) rotate(0 1.0427305306633912 9.117227858677495)"><path d="M0.67 -0.82 C1.06 2.47, 1.59 15.58, 1.37 19.06" stroke="#000000" stroke-width="1.5" fill="none" stroke-dasharray="1.5 7"></path></g></g><g stroke-opacity="0.7" fill-opacity="0.7" stroke-linecap="round" transform="translate(291 417) rotate(0 67 21.5)"><path d="M-1.87 1.95 C27.63 -1.72, 56.62 1.73, 135.24 -1.01 M0.12 -0.98 C49.32 0.82, 98.54 1.42, 133.79 -0.52 M132.29 -0.26 C134.05 12.47, 134.34 20.81, 135.91 42.51 M134.58 0.61 C133.61 13.97, 134.37 26.2, 133.99 43.52 M135.38 44.91 C105.56 41.85, 74.31 42.81, -0.61 41.16 M134.08 43.81 C89.04 43.94, 44.65 43.81, -0.98 43.33 M-1.95 44.07 C0.03 31.5, 1.96 17.96, 0.79 1.56 M-0.84 43.59 C-0.23 29.94, -1.4 16.51, 0.09 0.46" stroke="#000000" stroke-width="1" fill="none"></path></g><g stroke-opacity="0.7" fill-opacity="0.7" stroke-linecap="round" transform="translate(889 493) rotate(0 67 21.5)"><path d="M-1.67 0.64 C26.05 0.93, 55.27 -0.86, 133.75 -1.2 M0.45 -0.8 C42.5 -0.08, 83.16 -0.7, 133.35 -0.83 M132.66 1.25 C133.11 13.04, 134.54 22.39, 135.25 43.9 M134.46 0.99 C134.54 12.9, 134.43 25.53, 133.61 42.93 M133.93 41.94 C98 41.57, 62.38 44.13, 0.26 44.64 M134.64 43.98 C87.87 42.21, 40.73 41.64, -0.92 42.78 M-0.39 42.49 C-1.52 31.67, 0.67 23.06, -1.84 1.47 M0.55 42.59 C0.49 32.43, -0.78 21.52, -0.04 0.71" stroke="#000000" stroke-width="1" fill="none"></path></g><g stroke-linecap="round" transform="translate(444 315) rotate(0 46.5 16.5)"><path d="M0.5 -0.42 C28.66 -1.1, 57.45 -1.21, 91.29 -0.26 M-0.71 0.96 C29.81 -0.21, 60.37 0.16, 93.58 0.61 M91.35 -0.01 C94.19 6.58, 94.05 14.52, 94.38 34.91 M93.57 -0.3 C92.11 11.12, 93.27 22.6, 93.08 33.81 M91.99 31.03 C70.79 32.52, 46.12 34.48, -1.95 34.07 M93.35 33.39 C66.89 33.98, 40.2 34.46, -0.84 33.59 M1.76 33.18 C0.72 24.12, -2.06 10, 1.08 0.68 M0.6 32.34 C1.01 21.8, 0.02 10.07, -0.04 -0.69" stroke="#000000" stroke-width="1" fill="none"></path></g><g stroke-linecap="round" transform="translate(663 112) rotate(0 53 20.5)"><path d="M0.71 0.79 C32.2 -0.54, 63.23 0.41, 104.32 1.18 M0.88 0.09 C34.29 1.87, 66.73 0.07, 106.54 0.34 M107.19 -1.33 C107.66 14.04, 105.68 27, 105.93 39.63 M106.54 -0.63 C106.54 11.55, 105.15 24.1, 106.85 41.34 M106.74 40.45 C62.31 39.58, 23.39 39.57, -1.86 42.94 M105.41 41.74 C79.76 40.38, 52.69 40.79, 0.98 40.56 M1.36 40.75 C-1.55 27.23, 1.91 10.03, 0.6 0.67 M0.35 41.64 C-0.65 29.32, 0.77 16.74, -0.43 0.86" stroke="#000000" stroke-width="1" fill="none"></path></g><g stroke-opacity="0.7" fill-opacity="0.7" stroke-linecap="round" transform="translate(271 507) rotate(0 14.5 18.5)"><path d="M11.07 0.4 C13.97 -0.48, 18.69 0.63, 21.38 2.53 C24.07 4.43, 26.07 8.38, 27.2 11.8 C28.33 15.22, 28.85 19.21, 28.15 23.05 C27.45 26.88, 25.49 32.38, 22.98 34.84 C20.48 37.3, 16.15 38.54, 13.11 37.81 C10.08 37.08, 6.91 33.53, 4.79 30.44 C2.67 27.35, 0.87 23.14, 0.39 19.24 C-0.08 15.35, -0.25 10.32, 1.94 7.07 C4.13 3.82, 11.54 0.7, 13.56 -0.25 C15.58 -1.2, 14.19 1.14, 14.06 1.35 M17.18 -1.18 C20.38 -1.25, 23.5 2.18, 25.71 5.18 C27.92 8.19, 30.23 12.87, 30.44 16.87 C30.66 20.86, 29.3 25.69, 26.99 29.14 C24.67 32.58, 19.77 36.78, 16.56 37.54 C13.35 38.31, 10.17 35.47, 7.73 33.72 C5.29 31.98, 3.27 30.43, 1.91 27.07 C0.55 23.7, -1.29 17.58, -0.43 13.54 C0.44 9.5, 4.53 5.13, 7.1 2.82 C9.68 0.5, 13.41 -0.13, 15.02 -0.35 C16.62 -0.58, 16.82 1.04, 16.75 1.46" stroke="#000000" stroke-width="1" fill="none"></path></g><g stroke-opacity="0.7" fill-opacity="0.7" stroke-linecap="round" transform="translate(869 583) rotate(0 14.5 18.5)"><path d="M10.48 0.61 C13.02 -0.72, 16.82 0.11, 19.76 1.7 C22.7 3.29, 26.56 6.74, 28.11 10.15 C29.65 13.55, 29.75 18.3, 29.03 22.13 C28.31 25.95, 26.43 30.79, 23.78 33.1 C21.14 35.41, 16.48 36.35, 13.15 36 C9.82 35.65, 6.03 33.72, 3.8 31.01 C1.57 28.3, 0.06 23.65, -0.23 19.73 C-0.53 15.82, -0.13 10.82, 2.03 7.52 C4.19 4.23, 10.64 1.09, 12.73 -0.03 C14.81 -1.14, 14.65 0.37, 14.53 0.82 M18.36 1.15 C21.52 2.19, 25.82 5.43, 27.55 8.67 C29.28 11.91, 29.31 16.96, 28.76 20.6 C28.21 24.23, 26.37 27.88, 24.27 30.5 C22.18 33.12, 18.95 35.86, 16.2 36.31 C13.45 36.76, 10.37 35.38, 7.77 33.19 C5.17 31, 1.77 26.89, 0.59 23.16 C-0.6 19.43, -0.45 14.09, 0.64 10.81 C1.74 7.52, 4.29 4.97, 7.18 3.45 C10.06 1.93, 16.06 1.9, 17.93 1.69 C19.8 1.49, 18.63 1.97, 18.39 2.23" stroke="#000000" stroke-width="1" fill="none"></path></g><g stroke-linecap="round"><g stroke-opacity="0.7" fill-opacity="0.7" transform="translate(283 509) rotate(0 79.02601490577217 0.8078479376322321)"><path d="M1.17 -0.53 C27.38 -0.34, 131.91 0.21, 157.73 0.6 M0.33 1.81 C26.4 2.22, 130.81 2.25, 157.16 1.93" stroke="#000000" stroke-width="1" fill="none"></path></g></g><g stroke-linecap="round"><g stroke-opacity="0.7" fill-opacity="0.7" transform="translate(881 585) rotate(0 78.61503272136213 0.4529815787309417)"><path d="M0.39 -0.68 C26.6 -0.25, 131.99 1.29, 158.1 1.55 M-0.87 1.58 C25.21 1.74, 131.54 -0.37, 157.73 -0.29" stroke="#000000" stroke-width="1" fill="none"></path></g></g><g stroke-linecap="round"><g stroke-opacity="0.7" fill-opacity="0.7" transform="translate(287 543) rotate(0 74.38075554743406 -1.0648111568158356)"><path d="M-0.99 0.15 C24.14 0.17, 124.69 -0.43, 149.76 -0.45 M0.68 -0.82 C25.82 -1.1, 124.51 -2.12, 149.21 -2.28" stroke="#000000" stroke-width="1" fill="none"></path></g></g><g stroke-linecap="round"><g stroke-opacity="0.7" fill-opacity="0.7" transform="translate(885 619) rotate(0 74.43490420207377 0.06073830500241684)"><path d="M-0.68 1.1 C24.41 0.87, 124.63 -0.51, 149.55 -0.98 M1.17 0.63 C26.24 0.58, 124.41 0.81, 148.89 0.57" stroke="#000000" stroke-width="1" fill="none"></path></g></g><g stroke-linecap="round"><g stroke-opacity="0.7" fill-opacity="0.7" transform="translate(443 513) rotate(0 -1.4224707272315413 15.6743489060039)"><path d="M0.98 -0.66 C1.65 2.76, 6.07 14.74, 4.68 19.99 C3.29 25.23, -5.31 28.81, -7.35 30.8 M0.04 1.61 C0.47 5.27, 4.86 16.45, 3.56 21.52 C2.26 26.58, -5.99 30.62, -7.77 32.01" stroke="#000000" stroke-width="1" fill="none"></path></g></g><g stroke-linecap="round"><g stroke-opacity="0.7" fill-opacity="0.7" transform="translate(1041 589) rotate(0 -1.6951767843663674 16.159692904250733)"><path d="M1.1 0.55 C1.87 3.97, 6.66 14.75, 5.02 19.85 C3.39 24.95, -6.67 29.32, -8.72 31.14 M0.22 -0.21 C0.8 3.46, 5.16 15.85, 4.09 21.31 C3.02 26.77, -4.41 30.79, -6.21 32.53" stroke="#000000" stroke-width="1" fill="none"></path></g></g><g transform="translate(143 148) rotate(0 49.5 13)"><text x="0" y="18" font-family="Virgil, Segoe UI Emoji" font-size="20px" fill="#000000" text-anchor="start" style="white-space: pre;" direction="ltr">Transport</text></g><g stroke-opacity="0.7" fill-opacity="0.7" transform="translate(325 515) rotate(0 39 26)"><text x="0" y="18" font-family="Virgil, Segoe UI Emoji" font-size="20px" fill="#000000" text-anchor="start" style="white-space: pre;" direction="ltr">Journal</text><text x="0" y="44" font-family="Virgil, Segoe UI Emoji" font-size="20px" fill="#000000" text-anchor="start" style="white-space: pre;" direction="ltr">(outer?)</text></g><g stroke-opacity="0.7" fill-opacity="0.7" transform="translate(923 591) rotate(0 41 26)"><text x="0" y="18" font-family="Virgil, Segoe UI Emoji" font-size="20px" fill="#000000" text-anchor="start" style="white-space: pre;" direction="ltr">Journal </text><text x="0" y="44" font-family="Virgil, Segoe UI Emoji" font-size="20px" fill="#000000" text-anchor="start" style="white-space: pre;" direction="ltr">(inner?)</text></g><g stroke-opacity="0.7" fill-opacity="0.7" transform="translate(312 435) rotate(0 45.5 13)"><text x="0" y="18" font-family="Virgil, Segoe UI Emoji" font-size="20px" fill="#000000" text-anchor="start" style="white-space: pre;" direction="ltr">Journaler</text></g><g stroke-opacity="0.7" fill-opacity="0.7" transform="translate(910 511) rotate(0 45.5 13)"><text x="0" y="18" font-family="Virgil, Segoe UI Emoji" font-size="20px" fill="#000000" text-anchor="start" style="white-space: pre;" direction="ltr">Journaler</text></g><g transform="translate(454 320) rotate(0 39.5 13)"><text x="0" y="18" font-family="Virgil, Segoe UI Emoji" font-size="20px" fill="#000000" text-anchor="start" style="white-space: pre;" direction="ltr">Decoder</text></g><g transform="translate(678 122) rotate(0 37.5 13)"><text x="0" y="18" font-family="Virgil, Segoe UI Emoji" font-size="20px" fill="#000000" text-anchor="start" style="white-space: pre;" direction="ltr">Encoder</text></g><g transform="translate(290.5 228) rotate(0 28.5 13)"><text x="28.5" y="18" font-family="Virgil, Segoe UI Emoji" font-size="20px" fill="#000000" text-anchor="middle" style="white-space: pre;" direction="ltr">Bytes</text></g><g stroke-opacity="0.7" fill-opacity="0.7" stroke-linecap="round" transform="translate(411 403) rotate(0 7 7)"><path d="M-1.16 -1.01 C5.34 -0.37, 8.82 -1.09, 15.37 0.74 M-0.15 -0.02 C2.93 -0.64, 6.16 0.45, 13.32 -0.53 M13.37 0.32 C12.81 2.94, 14.45 7.55, 13.45 13.71 M14.27 -0.25 C14.35 5.3, 13.37 11.04, 14.55 14.12 M14.94 14.53 C9.87 12.66, 8.42 14.78, 0.21 13.33 M14.3 13.94 C10.28 13.66, 7.24 14.45, 0.3 14.42 M-1.35 14.68 C0.53 11.27, 0.24 6.02, -0.6 -1.06 M-0.58 13.58 C-0.43 11.75, 0.06 8.74, -0.24 -0.03" stroke="#000000" stroke-width="1" fill="none"></path></g><g stroke-opacity="0.7" fill-opacity="0.7" stroke-linecap="round" transform="translate(1009 479) rotate(0 7 7)"><path d="M-0.84 0.16 C5.66 -0.26, 10.31 -1.1, 15.02 -0.48 M-0.58 -0.22 C3.15 -0.21, 6.87 0.53, 13.8 0.52 M14.63 0.05 C12.82 5.39, 14.59 10.99, 15.25 13.79 M13.95 -0.25 C14.45 4.9, 13.89 10.21, 13.77 13.76 M15.15 14.68 C11.77 13.18, 7.82 15.39, 0.75 14.02 M13.85 13.52 C10.09 13.93, 5.25 13.69, -0.45 13.52 M1.03 13.17 C-0.19 8.14, 0.77 3.74, 0.6 -0.31 M0.49 13.43 C-0.02 10.94, 0.42 7.62, 0.11 -0.65" stroke="#000000" stroke-width="1" fill="none"></path></g><g stroke-linecap="round" transform="translate(407 112) rotate(0 6.5 8)"><path d="M-0.84 0.82 C4.62 -0.48, 9.91 -1.09, 12.67 0.34 M0.49 -0.19 C4.75 0.27, 9.35 0.39, 13.04 -0.54 M11.54 -1.32 C13.51 7.11, 13.73 10.68, 11.43 16.31 M12.67 0.27 C13.75 5.99, 12.95 11.18, 12.47 16.54 M12.38 16.95 C9.42 14.83, 4.64 16.67, 0.75 16.32 M12.37 16.14 C10.1 15.37, 6.49 15.53, 0.54 16.08 M-1.4 14.52 C-0.27 10.95, 0.84 5.34, -1.49 -1.13 M-0.17 16 C-0.7 10.87, -0.46 6.31, -0.27 -0.03" stroke="#000000" stroke-width="1" fill="none"></path></g><g stroke-linecap="round" transform="translate(522 302) rotate(0 7 5.5)"><path d="M0.25 -1.27 C1.88 0.23, 7 0.42, 12.8 -1.37 M-0.33 -0.29 C4.7 0.61, 9.24 -0.08, 13.9 -0.46 M14.66 -0.52 C14.85 4.82, 12.99 8.62, 14.5 11.64 M13.58 -0.54 C14.05 3.7, 13.48 6.81, 13.69 11.46 M13.95 9.77 C8.33 10.66, 5.87 11.64, 0.73 9.7 M14.67 10.85 C10.79 10.34, 7.05 10.55, -0.57 10.77 M0.11 10.4 C1.03 7.3, 0.19 4.84, 0.96 -0.48 M-0.01 11.17 C0.11 7.31, -0.26 2.62, -0.22 0.2" stroke="#000000" stroke-width="1" fill="none"></path></g><g stroke-linecap="round" transform="translate(758 98) rotate(0 6.5 8)"><path d="M-0.19 -0.86 C5.96 0.61, 10.72 0.79, 12.38 0.95 M0.3 0.38 C4.98 -0.48, 9.35 -0.55, 12.37 0.14 M12.09 1.34 C13.06 6.13, 12.31 10.3, 11.6 14.52 M13.41 -0.75 C12.51 4.33, 12.93 9.71, 12.83 16 M11.94 15.57 C10.24 15.65, 8.61 16.05, -0.71 17.19 M13.57 15.72 C10.15 15.71, 6.25 16.03, 0.2 16.06 M-0.64 16.59 C-0.35 10.8, -0.29 2.43, 0.04 0.09 M-0.58 16.3 C-0.58 9.89, 0.65 4.29, 0.76 -0.47" stroke="#000000" stroke-width="1" fill="none"></path></g><g transform="translate(586 276) rotate(0 28 13)"><text x="0" y="18" font-family="Virgil, Segoe UI Emoji" font-size="20px" fill="#000000" text-anchor="start" style="white-space: pre;" direction="ltr">Event</text></g><g transform="translate(314 140) rotate(0 32 13)"><text x="0" y="18" font-family="Virgil, Segoe UI Emoji" font-size="20px" fill="#000000" text-anchor="start" style="white-space: pre;" direction="ltr">Replier</text></g><g transform="translate(475 78) rotate(0 65 39)"><text x="0" y="18" font-family="Virgil, Segoe UI Emoji" font-size="20px" fill="#000000" text-anchor="start" style="white-space: pre;" direction="ltr">Bytes &amp; </text><text x="0" y="44" font-family="Virgil, Segoe UI Emoji" font-size="20px" fill="#000000" text-anchor="start" style="white-space: pre;" direction="ltr">remote ref</text><text x="0" y="70" font-family="Virgil, Segoe UI Emoji" font-size="20px" fill="#000000" text-anchor="start" style="white-space: pre;" direction="ltr">or client ref?</text></g><g stroke-linecap="round" transform="translate(592 468) rotate(0 60 22)"><path d="M1.81 1.51 C41.37 1.68, 80.68 2.19, 120.25 1.99 M0.9 0.98 C32.02 0.58, 62.26 -1.05, 120.11 0.23 M118.15 -1.52 C119.54 13.4, 120.12 26.01, 120.15 43.23 M120.31 0.11 C119.93 12.97, 119.23 25.9, 120.48 44.71 M121.82 44.07 C76.46 43.38, 28.85 43.7, -0.95 43.89 M119.93 44.91 C89.61 43.29, 60.51 43.4, -0.07 44.01 M-0.52 45.21 C-1.4 29.65, 0.08 17.65, 1.16 1.79 M-0.47 43.43 C1.39 31.46, 0.59 17.72, -0.64 -0.63" stroke="#000000" stroke-width="1" fill="none"></path></g><g stroke-linecap="round" transform="translate(693 451) rotate(0 10 8)"><path d="M-0.77 -0.08 C4.94 -1.73, 12.62 0.21, 20.32 -0.11 M0.71 0.73 C5.66 0.36, 10.77 -0.06, 20.62 -0.59 M19.91 -0.8 C19.69 3.06, 19.82 8.51, 19.39 15.42 M20.01 0.14 C19.64 5.75, 19.75 11.77, 19.37 15.86 M21.79 15.98 C12.26 17.93, 7.26 14.97, 1.97 17.24 M19.37 15.6 C13.48 16.22, 7.25 16.66, -0.92 15.34 M-1.52 16.86 C0.11 9.76, -0.76 4.76, -0.94 1.13 M0.14 16.42 C-0.54 12.18, -0.36 6.89, -0.29 -0.24" stroke="#000000" stroke-width="1" fill="none"></path></g><g stroke-linecap="round" transform="translate(593 562) rotate(0 23.5 25)"><path d="M23.64 -0.1 C32.09 8.47, 38.56 14.42, 45.17 27.81 M24.62 0.19 C29.73 5.72, 34.87 12.55, 46.86 26.34 M45.69 27.27 C38.37 33.31, 31.44 41.31, 23.95 49.46 M47.71 25.75 C40.95 31.22, 36.05 38.06, 23.22 50.71 M23.4 50.13 C18.29 44.26, 11.29 37.72, 0.47 24.55 M24.95 50.72 C18.96 44.28, 13.03 38.53, 0.33 26.38 M-1.95 25.33 C6.13 19.08, 11.95 14.33, 22.63 1.84 M-0.18 25.71 C9.41 14.89, 18.7 4.68, 24.95 0.89" stroke="#000000" stroke-width="1" fill="none"></path></g><g stroke-linecap="round" transform="translate(685 560) rotate(0 25.5 27)"><path d="M26.1 -1.28 C34.87 10.31, 45.81 22.95, 51.02 29.58 M25.05 0.15 C30.05 6.19, 36.17 11.2, 50.43 28.24 M49.96 27.03 C45.5 35.26, 37.56 41.91, 24.89 53.18 M51.03 28.11 C43.81 34.64, 37.99 40.98, 25.3 54.56 M27.22 53.65 C18.72 45.95, 11.6 40.13, -1.47 27.99 M26.35 53.53 C18.06 45.29, 8.12 37.38, 0.98 28.49 M-0.03 26.41 C6.91 18.77, 16.78 13.87, 26.7 -0.4 M0.27 28.82 C10.81 16.81, 19.59 6.49, 25.32 -0.85" stroke="#000000" stroke-width="1" fill="none"></path></g><g stroke-linecap="round"><g transform="translate(652 583) rotate(0 11.81780031099919 -0.6611877597868556)"><path d="M-0.44 -0.36 C3.68 -0.44, 19.98 -0.75, 24.08 -0.96" stroke="#000000" stroke-width="1.5" fill="none" stroke-dasharray="1.5 7"></path></g></g><g transform="translate(628 546) rotate(0 32.5 13)"><text x="0" y="18" font-family="Virgil, Segoe UI Emoji" font-size="20px" fill="#000000" text-anchor="start" style="white-space: pre;" direction="ltr">Actors</text></g><g stroke-linecap="round" transform="translate(13 479) rotate(0 46 22.5)"><path d="M26.16 2.32 C34.06 0.32, 48.24 -0.62, 57.32 0.39 C66.4 1.39, 74.73 4.86, 80.66 8.33 C86.59 11.81, 92.36 16.75, 92.88 21.22 C93.4 25.69, 89.35 31.5, 83.78 35.17 C78.21 38.85, 68.38 41.89, 59.47 43.27 C50.56 44.66, 39.18 45.09, 30.32 43.48 C21.47 41.88, 11.48 37.4, 6.35 33.65 C1.22 29.89, -1.64 25.24, -0.47 20.97 C0.71 16.7, 8.18 11.35, 13.39 8.01 C18.61 4.67, 27.45 1.93, 30.83 0.92 C34.2 -0.08, 33.64 1.48, 33.64 1.98 M37.68 -0.27 C46.48 -1.13, 60.61 0.06, 69.18 2.14 C77.75 4.21, 85.39 7.97, 89.13 12.18 C92.86 16.39, 94.13 22.99, 91.59 27.39 C89.06 31.8, 81.09 35.92, 73.9 38.63 C66.71 41.34, 57.7 43.52, 48.44 43.64 C39.19 43.76, 26.08 41.97, 18.35 39.34 C10.63 36.7, 4.49 31.92, 2.1 27.83 C-0.29 23.75, 0.58 18.84, 4 14.84 C7.43 10.83, 16.92 6.48, 22.66 3.81 C28.39 1.14, 35.97 -0.8, 38.42 -1.18 C40.88 -1.55, 37.1 1.15, 37.39 1.55" stroke="#000000" stroke-width="1" fill="none"></path></g><g transform="translate(33.5 488.5) rotate(0 25.5 13)"><text x="25.5" y="18" font-family="Virgil, Segoe UI Emoji" font-size="20px" fill="#000000" text-anchor="middle" style="white-space: pre;" direction="ltr">Admin</text></g><g stroke-linecap="round"><g transform="translate(129.375 193.43660782224072) rotate(0 36.21387270874345 -1.6042816275041787)"><path d="M0.31 1.05 C12.25 0.34, 59.37 -3.53, 71.28 -4.26 M-0.99 0.55 C11.34 0.07, 61.46 -1.68, 73.42 -2.62" stroke="#000000" stroke-width="1" fill="none"></path></g><g transform="translate(129.375 193.43660782224072) rotate(0 36.21387270874345 -1.6042816275041787)"><path d="M47.56 7.29 C53.54 4.92, 62.49 2.03, 73.45 -3.03 M44.86 8.15 C53.79 5.69, 60.78 3.16, 72.63 -1.73" stroke="#000000" stroke-width="1" fill="none"></path></g><g transform="translate(129.375 193.43660782224072) rotate(0 36.21387270874345 -1.6042816275041787)"><path d="M46.47 -13.2 C52.74 -10.07, 61.98 -7.45, 73.45 -3.03 M43.77 -12.35 C52.98 -9.44, 60.25 -6.6, 72.63 -1.73" stroke="#000000" stroke-width="1" fill="none"></path></g></g><g stroke-linecap="round" transform="translate(207 399) rotate(0 14.5 58.5)"><path d="M1 1.89 C10.2 -0.37, 20.16 1.37, 30.38 -1.67 M0.8 0.92 C11.75 0.78, 22.46 -0.45, 29.8 -0.34 M27.18 -1.23 C30.82 37.31, 31.3 73.94, 30.84 118.41 M29.12 -0.96 C28 26.5, 27.79 51.23, 29.85 116.11 M27.42 117.13 C17.96 118.06, 5.34 117.47, 1.74 117.24 M28.79 117.34 C23.17 116.41, 15.46 116.13, -0.21 116.15 M-1.1 117.1 C-0.32 69.15, -1.87 25.71, -1.3 -1.07 M-0.91 116.03 C-0.23 88.21, -0.3 59.48, -0.43 0.58" stroke="#000000" stroke-width="1" fill="none"></path></g><g transform="translate(133 378) rotate(0 77.5 13)"><text x="0" y="18" font-family="Virgil, Segoe UI Emoji" font-size="20px" fill="#000000" text-anchor="start" style="white-space: pre;" direction="ltr">Admin transport</text></g><g transform="translate(150 245) rotate(0 41.5 13)"><text x="0" y="18" font-family="Virgil, Segoe UI Emoji" font-size="20px" fill="#000000" text-anchor="start" style="white-space: pre;" direction="ltr">Frontend</text></g><g transform="translate(604 478) rotate(0 48.5 13)"><text x="0" y="18" font-family="Virgil, Segoe UI Emoji" font-size="20px" fill="#000000" text-anchor="start" style="white-space: pre;" direction="ltr">Executor?</text></g><g stroke-opacity="0.7" fill-opacity="0.7" transform="translate(894 310) rotate(0 77.5 13)"><text x="0" y="18" font-family="Virgil, Segoe UI Emoji" font-size="20px" fill="#000000" text-anchor="start" style="white-space: pre;" direction="ltr">Execution step?</text></g><g stroke-linecap="round"><g stroke-opacity="0.7" fill-opacity="0.7" transform="translate(109 408) rotate(0 47.232649053833455 -47.017522405660685)"><path d="M1.06 -1.08 C16.78 -17.11, 78.84 -79.28, 94.3 -95 M0.16 0.96 C15.75 -14.35, 78.04 -77.59, 93.51 -93.46" stroke="#000000" stroke-width="1" fill="none"></path></g><g stroke-opacity="0.7" fill-opacity="0.7" transform="translate(109 408) rotate(0 47.232649053833455 -47.017522405660685)"><path d="M79.29 -65.65 C84.53 -74.64, 87.6 -82.34, 92.72 -94.82 M81.15 -66.73 C85.91 -74.34, 89.14 -82.27, 93.86 -93.93" stroke="#000000" stroke-width="1" fill="none"></path></g><g stroke-opacity="0.7" fill-opacity="0.7" transform="translate(109 408) rotate(0 47.232649053833455 -47.017522405660685)"><path d="M64.64 -80.02 C74.4 -84.86, 81.84 -88.27, 92.72 -94.82 M66.5 -81.11 C75.76 -84.22, 83.56 -87.67, 93.86 -93.93" stroke="#000000" stroke-width="1" fill="none"></path></g></g><g stroke-linecap="round"><g stroke-opacity="0.7" fill-opacity="0.7" transform="translate(113 488) rotate(0 43.9469841204118 -17.32952360208145)"><path d="M0.95 -0.59 C15.06 -6.42, 71.66 -28.86, 85.81 -34.86 M-0.01 1.72 C14.34 -4.43, 73.21 -30.16, 87.9 -36.38" stroke="#000000" stroke-width="1" fill="none"></path></g><g stroke-opacity="0.7" fill-opacity="0.7" transform="translate(113 488) rotate(0 43.9469841204118 -17.32952360208145)"><path d="M65.09 -17.78 C76.67 -26.11, 82.52 -32.46, 87 -36.02 M65.6 -16.77 C72.42 -22.23, 80.01 -29.13, 88.1 -36.84" stroke="#000000" stroke-width="1" fill="none"></path></g><g stroke-opacity="0.7" fill-opacity="0.7" transform="translate(113 488) rotate(0 43.9469841204118 -17.32952360208145)"><path d="M56.97 -36.62 C71.81 -37.5, 80.9 -36.32, 87 -36.02 M57.48 -35.61 C66.97 -35.28, 77.06 -36.36, 88.1 -36.84" stroke="#000000" stroke-width="1" fill="none"></path></g></g><g stroke-linecap="round"><g stroke-opacity="0.7" fill-opacity="0.7" transform="translate(242 207) rotate(0 14.46818004474045 9.274793643141152)"><path d="M-0.34 0.85 C4.63 3.87, 24.48 14.5, 29.27 17.19 M1.69 0.25 C6.57 3.48, 24.2 15.39, 28.47 18.3" stroke="#000000" stroke-width="1" fill="none"></path></g><g stroke-opacity="0.7" fill-opacity="0.7" transform="translate(242 207) rotate(0 14.46818004474045 9.274793643141152)"><path d="M13.13 14.52 C14.93 14.38, 18.81 15.64, 26.89 17.84 M12.47 13.43 C17.82 14.98, 23.36 17.39, 28.19 17.91" stroke="#000000" stroke-width="1" fill="none"></path></g><g stroke-opacity="0.7" fill-opacity="0.7" transform="translate(242 207) rotate(0 14.46818004474045 9.274793643141152)"><path d="M19.68 4.86 C19.75 7.15, 21.96 10.86, 26.89 17.84 M19.02 3.76 C22.01 8.79, 25.24 14.62, 28.19 17.91" stroke="#000000" stroke-width="1" fill="none"></path></g></g><g stroke-linecap="round"><g stroke-opacity="0.7" fill-opacity="0.7" transform="translate(235 317) rotate(0 16.522861536592245 -3.3507671557366905)"><path d="M-0.83 -0.01 C4.7 -1.08, 28.01 -5.73, 33.87 -6.69 M0.94 -1.07 C6.24 -1.96, 27.38 -4.97, 32.86 -5.51" stroke="#000000" stroke-width="1" fill="none"></path></g><g stroke-opacity="0.7" fill-opacity="0.7" transform="translate(235 317) rotate(0 16.522861536592245 -3.3507671557366905)"><path d="M17.47 2.16 C22.03 0.16, 28.86 -1.6, 33.8 -5.63 M17.25 3.04 C23.62 -0.51, 28.54 -2.69, 32.15 -4.98" stroke="#000000" stroke-width="1" fill="none"></path></g><g stroke-opacity="0.7" fill-opacity="0.7" transform="translate(235 317) rotate(0 16.522861536592245 -3.3507671557366905)"><path d="M16.01 -9.56 C21.07 -7.34, 28.42 -4.9, 33.8 -5.63 M15.8 -8.68 C22.77 -8.14, 28.19 -6.26, 32.15 -4.98" stroke="#000000" stroke-width="1" fill="none"></path></g></g><g stroke-linecap="round"><g stroke-opacity="0.7" fill-opacity="0.7" transform="translate(237 440) rotate(0 21.28467636603395 -25.364704369711717)"><path d="M0.85 -0.12 C8.1 -8.42, 35.68 -40.77, 42.74 -49.01 M-0.17 -1.22 C6.97 -9.91, 34.54 -42.2, 41.65 -50.61" stroke="#000000" stroke-width="1" fill="none"></path></g><g stroke-opacity="0.7" fill-opacity="0.7" transform="translate(237 440) rotate(0 21.28467636603395 -25.364704369711717)"><path d="M31.02 -22.92 C35.14 -28.88, 36.66 -37.78, 42.25 -49.29 M30.67 -21.62 C34.85 -34.53, 38.46 -43.9, 40.93 -50.84" stroke="#000000" stroke-width="1" fill="none"></path></g><g stroke-opacity="0.7" fill-opacity="0.7" transform="translate(237 440) rotate(0 21.28467636603395 -25.364704369711717)"><path d="M15.38 -36.21 C23.27 -39.15, 28.47 -44.92, 42.25 -49.29 M15.03 -34.91 C25.32 -42.68, 35.07 -46.85, 40.93 -50.84" stroke="#000000" stroke-width="1" fill="none"></path></g></g><g stroke-linecap="round"><g stroke-opacity="0.7" fill-opacity="0.7" transform="translate(359 388) rotate(0 -0.6791883054759182 14.164077200079362)"><path d="M-1.16 0.82 C-1.38 5.47, -1.74 22.35, -1.87 26.73 M0.43 0.21 C0.64 5.14, 0.39 23.41, 0.38 28.12" stroke="#000000" stroke-width="1" fill="none"></path></g><g stroke-opacity="0.7" fill-opacity="0.7" transform="translate(359 388) rotate(0 -0.6791883054759182 14.164077200079362)"><path d="M-3.22 14.41 C-3.44 17.53, -1.89 22.98, 1.43 29.44 M-3.64 15.75 C-3.04 19.81, -1.33 22.36, 0.05 27.67" stroke="#000000" stroke-width="1" fill="none"></path></g><g stroke-opacity="0.7" fill-opacity="0.7" transform="translate(359 388) rotate(0 -0.6791883054759182 14.164077200079362)"><path d="M6.02 14.48 C3.48 17.49, 2.72 22.92, 1.43 29.44 M5.6 15.82 C3.44 19.89, 2.4 22.42, 0.05 27.67" stroke="#000000" stroke-width="1" fill="none"></path></g></g><g stroke-linecap="round"><g stroke-opacity="0.7" fill-opacity="0.7" transform="translate(356.33899652998616 468) rotate(0 -0.010664593724754923 15.819837764324575)"><path d="M-1.08 -0.6 C-1.44 4.49, -1.24 25.32, -1.05 30.67 M0.55 1.7 C0.47 6.98, 1.42 27.58, 1.24 32.24" stroke="#000000" stroke-width="1" fill="none"></path></g><g stroke-opacity="0.7" fill-opacity="0.7" transform="translate(356.33899652998616 468) rotate(0 -0.010664593724754923 15.819837764324575)"><path d="M-4.92 16.88 C-1.94 24, 1.25 29.91, 2.26 31.96 M-3.54 17.78 C-2.66 22.22, -1.01 28.21, 1.83 32.2" stroke="#000000" stroke-width="1" fill="none"></path></g><g stroke-opacity="0.7" fill-opacity="0.7" transform="translate(356.33899652998616 468) rotate(0 -0.010664593724754923 15.819837764324575)"><path d="M5.56 16.76 C4.4 23.84, 3.47 29.79, 2.26 31.96 M6.93 17.67 C4.25 22.09, 2.34 28.12, 1.83 32.2" stroke="#000000" stroke-width="1" fill="none"></path></g></g><g stroke-linecap="round"><g stroke-opacity="0.7" fill-opacity="0.7" transform="translate(416 333) rotate(0 13.047093250653688 -0.371697694933971)"><path d="M0.68 -0.66 C4.99 -1.01, 22.18 -2.04, 26.52 -2.34 M-0.43 1.6 C3.63 1.45, 20.95 -0.49, 25.32 -0.99" stroke="#000000" stroke-width="1" fill="none"></path></g><g stroke-opacity="0.7" fill-opacity="0.7" transform="translate(416 333) rotate(0 13.047093250653688 -0.371697694933971)"><path d="M12.44 4.49 C17.12 2.51, 21.28 0.77, 24.27 -1.08 M13.08 4.87 C15.16 3.15, 18.06 1.92, 25.4 -0.38" stroke="#000000" stroke-width="1" fill="none"></path></g><g stroke-opacity="0.7" fill-opacity="0.7" transform="translate(416 333) rotate(0 13.047093250653688 -0.371697694933971)"><path d="M11.41 -4.72 C16.44 -3.43, 20.97 -1.9, 24.27 -1.08 M12.05 -4.33 C14.43 -4.05, 17.56 -3.28, 25.4 -0.38" stroke="#000000" stroke-width="1" fill="none"></path></g></g><g stroke-linecap="round"><g stroke-opacity="0.7" fill-opacity="0.7" transform="translate(539 329) rotate(0 15.1717499657301 -0.7488930173870187)"><path d="M0.05 -0.2 C5.5 -0.55, 26.57 -1.03, 31.73 -1.11 M-1.38 -1.35 C3.97 -1.07, 24.84 -0.43, 30.64 -0.15" stroke="#000000" stroke-width="1" fill="none"></path></g><g stroke-opacity="0.7" fill-opacity="0.7" transform="translate(539 329) rotate(0 15.1717499657301 -0.7488930173870187)"><path d="M15.13 4.37 C17.2 2.33, 21.13 1.46, 30.82 1.28 M16.02 4.67 C20.03 2.59, 24.32 2.53, 31.03 0.47" stroke="#000000" stroke-width="1" fill="none"></path></g><g stroke-opacity="0.7" fill-opacity="0.7" transform="translate(539 329) rotate(0 15.1717499657301 -0.7488930173870187)"><path d="M15.56 -6.57 C17.63 -6.22, 21.46 -4.71, 30.82 1.28 M16.45 -6.27 C20.32 -5.06, 24.47 -1.82, 31.03 0.47" stroke="#000000" stroke-width="1" fill="none"></path></g></g><g stroke-linecap="round"><g stroke-opacity="0.7" fill-opacity="0.7" transform="translate(645 436) rotate(0 1.1430418317345925 13.69208537985105)"><path d="M0.81 -0.73 C1.16 3.85, 2.19 21.95, 2.5 26.72 M-0.22 1.5 C-0.12 6.33, 0.97 24.02, 1.29 28.11" stroke="#000000" stroke-width="1" fill="none"></path></g><g stroke-opacity="0.7" fill-opacity="0.7" transform="translate(645 436) rotate(0 1.1430418317345925 13.69208537985105)"><path d="M-5.03 15.13 C-2.74 19.49, 0.46 22.8, 2.4 28.61 M-4.11 15.55 C-1.82 19.19, -0.07 23.57, 1.5 28.3" stroke="#000000" stroke-width="1" fill="none"></path></g><g stroke-opacity="0.7" fill-opacity="0.7" transform="translate(645 436) rotate(0 1.1430418317345925 13.69208537985105)"><path d="M4.24 14.5 C3.39 19.13, 3.46 22.66, 2.4 28.61 M5.16 14.92 C4.53 18.79, 3.35 23.37, 1.5 28.3" stroke="#000000" stroke-width="1" fill="none"></path></g></g><g stroke-linecap="round"><g stroke-opacity="0.7" fill-opacity="0.7" transform="translate(649 520) rotate(0 0.6000942303566035 11.481478208685303)"><path d="M0.45 0.51 C0.64 4.28, 1.75 18.27, 1.98 22.14 M-0.78 -0.26 C-0.82 3.67, 0.73 19.56, 1.01 23.23" stroke="#000000" stroke-width="1" fill="none"></path></g><g stroke-opacity="0.7" fill-opacity="0.7" transform="translate(649 520) rotate(0 0.6000942303566035 11.481478208685303)"><path d="M-3.37 12.74 C-2.93 16.42, 0.38 19.79, 1.17 24.11 M-3.57 12.67 C-1.59 17.07, -0.46 20.72, 0.77 23.09" stroke="#000000" stroke-width="1" fill="none"></path></g><g stroke-opacity="0.7" fill-opacity="0.7" transform="translate(649 520) rotate(0 0.6000942303566035 11.481478208685303)"><path d="M4.5 12.05 C2.03 16.01, 2.43 19.64, 1.17 24.11 M4.29 11.98 C3.38 16.6, 1.62 20.5, 0.77 23.09" stroke="#000000" stroke-width="1" fill="none"></path></g></g><g stroke-linecap="round"><g stroke-opacity="0.7" fill-opacity="0.7" transform="translate(681 541) rotate(0 0.03267642665190351 -10.28620908673389)"><path d="M-0.05 -0.65 C0.06 -4.48, 1.26 -18.79, 1.61 -22.2 M-1.54 1.63 C-1.61 -2.09, 0.43 -16.67, 0.98 -20.77" stroke="#000000" stroke-width="1" fill="none"></path></g><g stroke-opacity="0.7" fill-opacity="0.7" transform="translate(681 541) rotate(0 0.03267642665190351 -10.28620908673389)"><path d="M2.74 -9.45 C2.19 -13.14, 2.33 -18.45, 1.45 -21.23 M3.32 -9.79 C2.27 -13.27, 2.08 -15.49, 0.64 -20.36" stroke="#000000" stroke-width="1" fill="none"></path></g><g stroke-opacity="0.7" fill-opacity="0.7" transform="translate(681 541) rotate(0 0.03267642665190351 -10.28620908673389)"><path d="M-4.73 -10.46 C-2.46 -13.77, 0.49 -18.7, 1.45 -21.23 M-4.14 -10.79 C-3.13 -14.01, -1.26 -15.94, 0.64 -20.36" stroke="#000000" stroke-width="1" fill="none"></path></g></g><g stroke-linecap="round"><g stroke-opacity="0.7" fill-opacity="0.7" transform="translate(721 490) rotate(0 71.19235799685123 -40.28713399544358)"><path d="M-0.64 0.16 C23.12 -13.16, 119.1 -67.45, 143.02 -80.73 M1.23 -0.81 C24.88 -13.91, 119.05 -66.11, 142.61 -79.58" stroke="#000000" stroke-width="1" fill="none"></path></g><g stroke-opacity="0.7" fill-opacity="0.7" transform="translate(721 490) rotate(0 71.19235799685123 -40.28713399544358)"><path d="M123.32 -55.13 C128.65 -62.99, 137.3 -73.27, 143.11 -81.4 M124.03 -56.76 C127.41 -62.75, 132.26 -68.24, 142.13 -79.4" stroke="#000000" stroke-width="1" fill="none"></path></g><g stroke-opacity="0.7" fill-opacity="0.7" transform="translate(721 490) rotate(0 71.19235799685123 -40.28713399544358)"><path d="M113.27 -73.02 C121.9 -74.73, 133.97 -78.92, 143.11 -81.4 M113.98 -74.65 C119.91 -76.46, 127.17 -77.68, 142.13 -79.4" stroke="#000000" stroke-width="1" fill="none"></path></g></g><g stroke-linecap="round"><g stroke-opacity="0.7" fill-opacity="0.7" transform="translate(947 467) rotate(0 0.4496062172111124 12.816442136061426)"><path d="M-0.45 -0.58 C-0.35 3.6, 0.23 20.89, 0.22 25.13 M1.51 1.73 C1.51 6.03, -0.1 22.24, -0.62 26.21" stroke="#000000" stroke-width="1" fill="none"></path></g><g stroke-opacity="0.7" fill-opacity="0.7" transform="translate(947 467) rotate(0 0.4496062172111124 12.816442136061426)"><path d="M-4.32 13.82 C-3.8 16.41, -3.28 19.43, 0.29 25.72 M-3.78 13.48 C-3.46 17.77, -1.58 21.45, -0.55 26.03" stroke="#000000" stroke-width="1" fill="none"></path></g><g stroke-opacity="0.7" fill-opacity="0.7" transform="translate(947 467) rotate(0 0.4496062172111124 12.816442136061426)"><path d="M4.52 14.79 C2.66 17.09, 0.81 19.85, 0.29 25.72 M5.06 14.46 C2.8 18.43, 2.1 21.83, -0.55 26.03" stroke="#000000" stroke-width="1" fill="none"></path></g></g><g stroke-linecap="round"><g stroke-opacity="0.7" fill-opacity="0.7" transform="translate(965.6497579004499 551) rotate(0 0.2960816062500271 16.05401833827142)"><path d="M0.88 -0.03 C1.09 5.39, 0.79 27.76, 0.93 33.21 M-0.12 -1.1 C-0.09 3.91, -0.5 25.55, -0.31 31.4" stroke="#000000" stroke-width="1" fill="none"></path></g><g stroke-opacity="0.7" fill-opacity="0.7" transform="translate(965.6497579004499 551) rotate(0 0.2960816062500271 16.05401833827142)"><path d="M-6 15.33 C-3.52 20.46, -2.72 25.07, -0.9 30.73 M-6.11 16.38 C-3.5 21.79, -1.72 27.7, -0.41 31.6" stroke="#000000" stroke-width="1" fill="none"></path></g><g stroke-opacity="0.7" fill-opacity="0.7" transform="translate(965.6497579004499 551) rotate(0 0.2960816062500271 16.05401833827142)"><path d="M5.16 15.29 C4.61 20.51, 2.37 25.13, -0.9 30.73 M5.05 16.34 C3.31 21.7, 0.74 27.63, -0.41 31.6" stroke="#000000" stroke-width="1" fill="none"></path></g></g><g stroke-opacity="0.7" fill-opacity="0.7" transform="translate(891 69) rotate(0 40.5 13)"><text x="0" y="18" font-family="Virgil, Segoe UI Emoji" font-size="20px" fill="#000000" text-anchor="start" style="white-space: pre;" direction="ltr">Envelope</text></g><g stroke-opacity="0.7" fill-opacity="0.7" stroke-linecap="round" transform="translate(882 240) rotate(0 64 16.5)"><path d="M0.47 -1 C31.26 1.28, 63.39 -0.88, 126.84 -1.03 M-0.96 0.33 C40.65 1.58, 83.1 0.84, 127.73 -0.26 M129.14 -1.98 C126.23 10.03, 127.07 16.99, 127.02 32.6 M127.94 0.01 C127.84 6.59, 128.7 14.73, 127.54 33.89 M129.71 34.23 C78.66 33.36, 28.71 31.7, -1.28 31.85 M127.29 33.38 C88.81 33.6, 49.6 33.27, 0.8 32.5 M0.14 34.36 C-1.23 22.7, -0.62 9.99, -1.95 1.69 M-0.43 32.79 C-0.05 22.28, 0.99 12.23, -0.21 -0.62" stroke="#000000" stroke-width="1" fill="none"></path></g><g stroke-opacity="0.7" fill-opacity="0.7" stroke-linecap="round" transform="translate(991 227) rotate(0 9 7)"><path d="M1.25 -0.55 C6.18 -0.75, 12.49 -1.48, 18.13 -1.59 M-0.32 0.61 C6.04 -0.38, 11.39 0.81, 17.3 -0.01 M18.26 -0.34 C17.19 4.5, 17.28 10.86, 17.68 14.69 M17.98 -0.25 C17.8 3.77, 17.71 6.87, 18.64 13.44 M19.53 13.71 C13.36 12.16, 8.47 14.29, -1.71 12.46 M17.88 14.61 C13.75 13.75, 8.19 13.14, -0.77 13.41 M0.59 14.92 C0.33 8.51, -0.71 5.16, -1.37 0.97 M0.49 14.06 C0.51 8.32, 0.11 2.85, -0.38 -0.18" stroke="#000000" stroke-width="1" fill="none"></path></g><g stroke-opacity="0.7" fill-opacity="0.7" transform="translate(883 245) rotate(0 66 13)"><text x="0" y="18" font-family="Virgil, Segoe UI Emoji" font-size="20px" fill="#000000" text-anchor="start" style="white-space: pre;" direction="ltr">Filter replies?</text></g><g stroke-linecap="round"><g stroke-opacity="0.7" fill-opacity="0.7" transform="translate(937.4097244803884 297) rotate(0 1.970605732302829 -8.519899359471168)"><path d="M1.03 0.74 C1.82 -1.89, 3.42 -12.86, 3.84 -15.78 M0.1 0.08 C0.83 -2.93, 2.5 -15.12, 2.91 -17.78" stroke="#000000" stroke-width="1" fill="none"></path></g><g stroke-opacity="0.7" fill-opacity="0.7" transform="translate(937.4097244803884 297) rotate(0 1.970605732302829 -8.519899359471168)"><path d="M5.08 -9.7 C4.36 -11.7, 3.31 -13.81, 2.44 -17.74 M4.73 -9.8 C4.06 -12.12, 3.46 -13.88, 2.71 -17.52" stroke="#000000" stroke-width="1" fill="none"></path></g><g stroke-opacity="0.7" fill-opacity="0.7" transform="translate(937.4097244803884 297) rotate(0 1.970605732302829 -8.519899359471168)"><path d="M-0.48 -10.51 C0.03 -12.38, 0.21 -14.31, 2.44 -17.74 M-0.83 -10.61 C0.04 -12.67, 0.99 -14.2, 2.71 -17.52" stroke="#000000" stroke-width="1" fill="none"></path></g></g><g stroke-linecap="round"><g stroke-opacity="0.7" fill-opacity="0.7" transform="translate(930.5201784897872 234) rotate(0 -0.05720110840547932 -9.116687202752729)"><path d="M-0.43 0.96 C-0.7 -1.88, -1.75 -14.11, -1.67 -17.47 M1.54 0.42 C1.67 -2.72, 1.01 -16.06, 0.73 -19.19" stroke="#000000" stroke-width="1" fill="none"></path></g><g stroke-opacity="0.7" fill-opacity="0.7" transform="translate(930.5201784897872 234) rotate(0 -0.05720110840547932 -9.116687202752729)"><path d="M5.13 -11.29 C3.92 -12.49, 1.52 -15.74, 1.35 -19.62 M3.95 -10.45 C3.1 -14.46, 1.2 -17.45, 0.63 -19.36" stroke="#000000" stroke-width="1" fill="none"></path></g><g stroke-opacity="0.7" fill-opacity="0.7" transform="translate(930.5201784897872 234) rotate(0 -0.05720110840547932 -9.116687202752729)"><path d="M-1.1 -10.88 C-0.46 -12.18, -1.02 -15.55, 1.35 -19.62 M-2.28 -10.04 C-0.74 -14.25, -0.24 -17.38, 0.63 -19.36" stroke="#000000" stroke-width="1" fill="none"></path></g></g><g stroke-linecap="round"><g stroke-opacity="0.7" fill-opacity="0.7" transform="translate(877 140) rotate(0 -48.58607281800823 1.103925633216278)"><path d="M0.51 0.79 C-15.45 0.91, -80.45 0.84, -96.82 1.02 M-0.69 0.16 C-16.69 0.38, -81.93 1.55, -97.68 2.05" stroke="#000000" stroke-width="1" fill="none"></path></g><g stroke-opacity="0.7" fill-opacity="0.7" transform="translate(877 140) rotate(0 -48.58607281800823 1.103925633216278)"><path d="M-68.42 -8.58 C-77.23 -7.64, -81.69 -6.1, -96.29 4 M-69.65 -7.97 C-80.76 -4.11, -91.47 -0.75, -97.93 2.01" stroke="#000000" stroke-width="1" fill="none"></path></g><g stroke-opacity="0.7" fill-opacity="0.7" transform="translate(877 140) rotate(0 -48.58607281800823 1.103925633216278)"><path d="M-67.94 11.94 C-76.9 8.55, -81.46 5.77, -96.29 4 M-69.17 12.54 C-80.43 8.45, -91.32 3.85, -97.93 2.01" stroke="#000000" stroke-width="1" fill="none"></path></g></g><g stroke-linecap="round"><g stroke-opacity="0.7" fill-opacity="0.7" transform="translate(651 136) rotate(0 -12.88622627851089 -0.6986899984954107)"><path d="M-0.08 0.99 C-4.21 0.75, -20.53 -0.25, -24.49 -0.52 M-1.58 0.46 C-5.94 -0.22, -21.87 -1.84, -25.69 -2.39" stroke="#000000" stroke-width="1" fill="none"></path></g><g stroke-opacity="0.7" fill-opacity="0.7" transform="translate(651 136) rotate(0 -12.88622627851089 -0.6986899984954107)"><path d="M-13.01 -5.62 C-17.3 -4.08, -21.24 -4.35, -25.53 -1.85 M-13.95 -4.67 C-17.7 -4.47, -20.57 -3.54, -25.15 -1.91" stroke="#000000" stroke-width="1" fill="none"></path></g><g stroke-opacity="0.7" fill-opacity="0.7" transform="translate(651 136) rotate(0 -12.88622627851089 -0.6986899984954107)"><path d="M-13.99 2.54 C-18.02 1.42, -21.64 -1.5, -25.53 -1.85 M-14.93 3.49 C-18.33 1.3, -20.91 -0.16, -25.15 -1.91" stroke="#000000" stroke-width="1" fill="none"></path></g></g><g stroke-linecap="round"><g stroke-opacity="0.7" fill-opacity="0.7" transform="translate(450 139) rotate(0 -12.186615903028326 1.2368619698751786)"><path d="M1.2 0.37 C-3.09 0.74, -20.54 1.33, -25.1 1.62 M0.37 -0.49 C-4.06 0.11, -21.01 2.29, -25.57 2.96" stroke="#000000" stroke-width="1" fill="none"></path></g><g stroke-opacity="0.7" fill-opacity="0.7" transform="translate(450 139) rotate(0 -12.186615903028326 1.2368619698751786)"><path d="M-13.64 -2.14 C-18.55 -1.01, -22.05 1.2, -26.05 2.25 M-14.31 -3.26 C-16.31 -1.46, -18.88 -0.82, -25.26 2.91" stroke="#000000" stroke-width="1" fill="none"></path></g><g stroke-opacity="0.7" fill-opacity="0.7" transform="translate(450 139) rotate(0 -12.186615903028326 1.2368619698751786)"><path d="M-12.43 6.7 C-17.72 4.72, -21.64 3.81, -26.05 2.25 M-13.1 5.57 C-15.32 5.44, -18.16 4.14, -25.26 2.91" stroke="#000000" stroke-width="1" fill="none"></path></g></g><g stroke-linecap="round"><g stroke-opacity="0.7" fill-opacity="0.7" transform="translate(276 139) rotate(0 -55.95252191272098 -18.51535169705747)"><path d="M0.63 0.92 C-18.1 -5.37, -93.1 -31.51, -111.73 -37.95 M-0.5 0.35 C-19.42 -5.79, -94.04 -30.73, -112.54 -36.91" stroke="#000000" stroke-width="1" fill="none"></path></g><g stroke-opacity="0.7" fill-opacity="0.7" transform="translate(276 139) rotate(0 -55.95252191272098 -18.51535169705747)"><path d="M-81.02 -37.26 C-94.8 -35.85, -105.03 -35.15, -111.8 -38.64 M-82.57 -38.42 C-88.29 -37.34, -94.85 -36.78, -112.29 -36.87" stroke="#000000" stroke-width="1" fill="none"></path></g><g stroke-opacity="0.7" fill-opacity="0.7" transform="translate(276 139) rotate(0 -55.95252191272098 -18.51535169705747)"><path d="M-87.52 -17.79 C-98.94 -23.35, -106.86 -29.57, -111.8 -38.64 M-89.07 -18.95 C-93.47 -22.13, -98.62 -25.78, -112.29 -36.87" stroke="#000000" stroke-width="1" fill="none"></path></g></g><g stroke-opacity="0.7" fill-opacity="0.7" transform="translate(431 597) rotate(0 55.5 13)"><text x="0" y="18" font-family="Virgil, Segoe UI Emoji" font-size="20px" fill="#000000" text-anchor="start" style="white-space: pre;" direction="ltr">Application?</text></g><g stroke-opacity="0.7" fill-opacity="0.7" stroke-linecap="round" transform="translate(570 547) rotate(0 90 42)"><path d="M0.38 1.44 C40.4 -0.45, 77.95 -1.72, 180.31 0.18 M179.11 1.82 C180.8 31.86, 181.79 60.65, 181.77 82.92 M178.39 82.81 C119.89 83.43, 62.93 84.23, 0.78 82.18 M1.74 85.96 C-1.4 52.64, 0.32 20.02, 0.92 1.65" stroke="#000000" stroke-width="1.5" fill="none" stroke-dasharray="1.5 7"></path></g><g stroke-linecap="round"><g stroke-opacity="0.7" fill-opacity="0.7" transform="translate(1017 234.00000000000006) rotate(0 48.86076255664227 124.95168878212567)"><path d="M1.18 -0.65 C17.34 24.41, 95.19 109.52, 96.55 151.39 C97.91 193.25, 23.76 234.26, 9.33 250.55" stroke="#000000" stroke-width="1.5" fill="none" stroke-dasharray="1.5 7"></path></g><g stroke-opacity="0.7" fill-opacity="0.7" transform="translate(1017 234.00000000000006) rotate(0 48.86076255664227 124.95168878212567)"><path d="M23.66 225.72 C21.58 232.26, 17.82 240.09, 7.85 250.66" stroke="#000000" stroke-width="1.5" fill="none" stroke-dasharray="1.5 5"></path></g><g stroke-opacity="0.7" fill-opacity="0.7" transform="translate(1017 234.00000000000006) rotate(0 48.86076255664227 124.95168878212567)"><path d="M36.6 241.64 C30.99 244.14, 23.84 247.81, 7.85 250.66" stroke="#000000" stroke-width="1.5" fill="none" stroke-dasharray="1.5 5"></path></g></g><g stroke-linecap="round"><g stroke-opacity="0.7" fill-opacity="0.7" transform="translate(543.0000000000001 300.00000000000006) rotate(0 -54.92620827961565 58.76792401438357)"><path d="M-1.15 -1.02 C-0.15 11.12, 11.79 53.81, 5.15 73.39 C-1.49 92.97, -20.62 109.99, -40.98 116.45 C-61.33 122.91, -104.51 112.95, -116.99 112.15" stroke="#000000" stroke-width="1.5" fill="none" stroke-dasharray="1.5 7"></path></g><g stroke-opacity="0.7" fill-opacity="0.7" transform="translate(543.0000000000001 300.00000000000006) rotate(0 -54.92620827961565 58.76792401438357)"><path d="M-89.37 104.43 C-95.38 107.05, -102.01 106.81, -115.07 112.34" stroke="#000000" stroke-width="1.5" fill="none" stroke-dasharray="1.5 5"></path></g><g stroke-opacity="0.7" fill-opacity="0.7" transform="translate(543.0000000000001 300.00000000000006) rotate(0 -54.92620827961565 58.76792401438357)"><path d="M-92.18 124.76 C-97.63 122.75, -103.62 117.84, -115.07 112.34" stroke="#000000" stroke-width="1.5" fill="none" stroke-dasharray="1.5 5"></path></g></g></svg>